{
	"asset":{
		"generator":"Khronos glTF Blender I/O v5.1.19",
		"version":"2.0"
	},
	"scene":0,
	"scenes":[
		{
			"name":"Scene",
			"nodes":[
				18
			]
		}
	],
	"nodes":[
		{
			"mesh":0,
			"name":"ArmL",
			"scale":[
				1,
				1.600000023841858,
				1
			],
			"translation":[
				-0.5,
				0.699999988079071,
				0.05000000074505806
			]
		},
		{
			"mesh":1,
			"name":"ArmR",
			"scale":[
				1,
				1.600000023841858,
				1
			],
			"translation":[
				0.5,
				0.699999988079071,
				0.05000000074505806
			]
		},
		{
			"mesh":2,
			"name":"Belly",
			"scale":[
				1,
				0.8999999761581421,
				0.4000000059604645
			],
			"translation":[
				0,
				0.550000011920929,
				0.30000001192092896
			]
		},
		{
			"mesh":3,
			"name":"Body",
			"scale":[
				1,
				1.0499999523162842,
				1
			],
			"translation":[
				0,
				0.550000011920929,
				0
			]
		},
		{
			"mesh":4,
			"name":"CheekL",
			"scale":[
				1,
				0.6000000238418579,
				0.4000000059604645
			],
			"translation":[
				-0.30000001192092896,
				1.3200000524520874,
				0.3400000035762787
			]
		},
		{
			"mesh":5,
			"name":"CheekR",
			"scale":[
				1,
				0.6000000238418579,
				0.4000000059604645
			],
			"translation":[
				0.30000001192092896,
				1.3200000524520874,
				0.3400000035762787
			]
		},
		{
			"mesh":6,
			"name":"EarL",
			"scale":[
				1,
				2.5999999046325684,
				1
			],
			"translation":[
				-0.2199999988079071,
				2.25,
				0
			]
		},
		{
			"mesh":7,
			"name":"EarL_Inner",
			"scale":[
				1,
				2.4000000953674316,
				0.5
			],
			"translation":[
				-0.2199999988079071,
				2.299999952316284,
				0.03999999910593033
			]
		},
		{
			"mesh":8,
			"name":"EarR",
			"scale":[
				1,
				2.5999999046325684,
				1
			],
			"translation":[
				0.2199999988079071,
				2.25,
				0
			]
		},
		{
			"mesh":9,
			"name":"EarR_Inner",
			"scale":[
				1,
				2.4000000953674316,
				0.5
			],
			"translation":[
				0.2199999988079071,
				2.299999952316284,
				0.03999999910593033
			]
		},
		{
			"mesh":10,
			"name":"EyeL",
			"translation":[
				-0.1599999964237213,
				1.5499999523162842,
				0.4099999964237213
			]
		},
		{
			"mesh":11,
			"name":"EyeR",
			"translation":[
				0.1599999964237213,
				1.5499999523162842,
				0.4099999964237213
			]
		},
		{
			"mesh":12,
			"name":"FootLB",
			"scale":[
				1,
				0.550000011920929,
				1
			],
			"translation":[
				-0.3199999928474426,
				0.11999999731779099,
				-0.10000000149011612
			]
		},
		{
			"mesh":13,
			"name":"FootLF",
			"scale":[
				1,
				0.550000011920929,
				1.399999976158142
			],
			"translation":[
				-0.2199999988079071,
				0.10000000149011612,
				0.30000001192092896
			]
		},
		{
			"mesh":14,
			"name":"FootRB",
			"scale":[
				1,
				0.550000011920929,
				1
			],
			"translation":[
				0.3199999928474426,
				0.11999999731779099,
				-0.10000000149011612
			]
		},
		{
			"mesh":15,
			"name":"FootRF",
			"scale":[
				1,
				0.550000011920929,
				1.399999976158142
			],
			"translation":[
				0.2199999988079071,
				0.10000000149011612,
				0.30000001192092896
			]
		},
		{
			"mesh":16,
			"name":"Head",
			"translation":[
				0,
				1.4500000476837158,
				0
			]
		},
		{
			"mesh":17,
			"name":"Nose",
			"scale":[
				1.2000000476837158,
				0.8999999761581421,
				0.699999988079071
			],
			"translation":[
				0,
				1.3600000143051147,
				0.46000000834465027
			]
		},
		{
			"children":[
				0,
				1,
				2,
				3,
				4,
				5,
				6,
				7,
				8,
				9,
				10,
				11,
				12,
				13,
				14,
				15,
				16,
				17
			],
			"name":"Mascot"
		}
	],
	"materials":[
		{
			"doubleSided":true,
			"name":"MascotPeach",
			"pbrMetallicRoughness":{
				"baseColorFactor":[
					0.800000011920929,
					0.800000011920929,
					0.800000011920929,
					1
				],
				"metallicFactor":0,
				"roughnessFactor":0.5
			}
		},
		{
			"doubleSided":true,
			"name":"MascotWhite",
			"pbrMetallicRoughness":{
				"baseColorFactor":[
					0.800000011920929,
					0.800000011920929,
					0.800000011920929,
					1
				],
				"metallicFactor":0,
				"roughnessFactor":0.5
			}
		},
		{
			"doubleSided":true,
			"name":"MascotPink",
			"pbrMetallicRoughness":{
				"baseColorFactor":[
					0.800000011920929,
					0.800000011920929,
					0.800000011920929,
					1
				],
				"metallicFactor":0,
				"roughnessFactor":0.5
			}
		},
		{
			"doubleSided":true,
			"name":"MascotDark",
			"pbrMetallicRoughness":{
				"baseColorFactor":[
					0.800000011920929,
					0.800000011920929,
					0.800000011920929,
					1
				],
				"metallicFactor":0,
				"roughnessFactor":0.5
			}
		},
		{
			"doubleSided":true,
			"name":"MascotNose",
			"pbrMetallicRoughness":{
				"baseColorFactor":[
					0.800000011920929,
					0.800000011920929,
					0.800000011920929,
					1
				],
				"metallicFactor":0,
				"roughnessFactor":0.5
			}
		}
	],
	"meshes":[
		{
			"name":"Sphere.016",
			"primitives":[
				{
					"attributes":{
						"POSITION":0,
						"NORMAL":1,
						"TEXCOORD_0":2
					},
					"indices":3,
					"material":0
				}
			]
		},
		{
			"name":"Sphere.017",
			"primitives":[
				{
					"attributes":{
						"POSITION":4,
						"NORMAL":5,
						"TEXCOORD_0":6
					},
					"indices":3,
					"material":0
				}
			]
		},
		{
			"name":"Sphere.002",
			"primitives":[
				{
					"attributes":{
						"POSITION":7,
						"NORMAL":8,
						"TEXCOORD_0":9
					},
					"indices":10,
					"material":1
				}
			]
		},
		{
			"name":"Sphere",
			"primitives":[
				{
					"attributes":{
						"POSITION":11,
						"NORMAL":12,
						"TEXCOORD_0":13
					},
					"indices":14,
					"material":0
				}
			]
		},
		{
			"name":"Sphere.010",
			"primitives":[
				{
					"attributes":{
						"POSITION":15,
						"NORMAL":16,
						"TEXCOORD_0":17
					},
					"indices":18,
					"material":2
				}
			]
		},
		{
			"name":"Sphere.011",
			"primitives":[
				{
					"attributes":{
						"POSITION":19,
						"NORMAL":20,
						"TEXCOORD_0":21
					},
					"indices":18,
					"material":2
				}
			]
		},
		{
			"name":"Sphere.003",
			"primitives":[
				{
					"attributes":{
						"POSITION":22,
						"NORMAL":23,
						"TEXCOORD_0":24
					},
					"indices":3,
					"material":0
				}
			]
		},
		{
			"name":"Sphere.005",
			"primitives":[
				{
					"attributes":{
						"POSITION":25,
						"NORMAL":26,
						"TEXCOORD_0":27
					},
					"indices":28,
					"material":2
				}
			]
		},
		{
			"name":"Sphere.004",
			"primitives":[
				{
					"attributes":{
						"POSITION":29,
						"NORMAL":30,
						"TEXCOORD_0":31
					},
					"indices":3,
					"material":0
				}
			]
		},
		{
			"name":"Sphere.006",
			"primitives":[
				{
					"attributes":{
						"POSITION":32,
						"NORMAL":33,
						"TEXCOORD_0":34
					},
					"indices":28,
					"material":2
				}
			]
		},
		{
			"name":"Sphere.007",
			"primitives":[
				{
					"attributes":{
						"POSITION":35,
						"NORMAL":36,
						"TEXCOORD_0":37
					},
					"indices":18,
					"material":3
				}
			]
		},
		{
			"name":"Sphere.008",
			"primitives":[
				{
					"attributes":{
						"POSITION":38,
						"NORMAL":39,
						"TEXCOORD_0":40
					},
					"indices":18,
					"material":3
				}
			]
		},
		{
			"name":"Sphere.014",
			"primitives":[
				{
					"attributes":{
						"POSITION":41,
						"NORMAL":42,
						"TEXCOORD_0":43
					},
					"indices":3,
					"material":0
				}
			]
		},
		{
			"name":"Sphere.012",
			"primitives":[
				{
					"attributes":{
						"POSITION":44,
						"NORMAL":45,
						"TEXCOORD_0":46
					},
					"indices":18,
					"material":0
				}
			]
		},
		{
			"name":"Sphere.015",
			"primitives":[
				{
					"attributes":{
						"POSITION":47,
						"NORMAL":48,
						"TEXCOORD_0":49
					},
					"indices":3,
					"material":0
				}
			]
		},
		{
			"name":"Sphere.013",
			"primitives":[
				{
					"attributes":{
						"POSITION":50,
						"NORMAL":51,
						"TEXCOORD_0":52
					},
					"indices":18,
					"material":0
				}
			]
		},
		{
			"name":"Sphere.001",
			"primitives":[
				{
					"attributes":{
						"POSITION":53,
						"NORMAL":54,
						"TEXCOORD_0":55
					},
					"indices":56,
					"material":0
				}
			]
		},
		{
			"name":"Sphere.009",
			"primitives":[
				{
					"attributes":{
						"POSITION":57,
						"NORMAL":58,
						"TEXCOORD_0":59
					},
					"indices":60,
					"material":4
				}
			]
		}
	],
	"accessors":[
		{
			"bufferView":0,
			"componentType":5126,
			"count":271,
			"max":[
				0.1300000101327896,
				0.12999999523162842,
				0.130000039935112
			],
			"min":[
				-0.1300000548362732,
				-0.12999999523162842,
				-0.1300000697374344
			],
			"type":"VEC3"
		},
		{
			"bufferView":1,
			"componentType":5126,
			"count":271,
			"type":"VEC3"
		},
		{
			"bufferView":2,
			"componentType":5126,
			"count":271,
			"type":"VEC2"
		},
		{
			"bufferView":3,
			"componentType":5123,
			"count":1320,
			"type":"SCALAR"
		},
		{
			"bufferView":4,
			"componentType":5126,
			"count":271,
			"max":[
				0.1300000101327896,
				0.12999999523162842,
				0.130000039935112
			],
			"min":[
				-0.1300000548362732,
				-0.12999999523162842,
				-0.1300000697374344
			],
			"type":"VEC3"
		},
		{
			"bufferView":5,
			"componentType":5126,
			"count":271,
			"type":"VEC3"
		},
		{
			"bufferView":6,
			"componentType":5126,
			"count":271,
			"type":"VEC2"
		},
		{
			"bufferView":7,
			"componentType":5126,
			"count":271,
			"max":[
				0.36000004410743713,
				0.36000001430511475,
				0.3600000739097595
			],
			"min":[
				-0.3600001037120819,
				-0.36000001430511475,
				-0.3600001335144043
			],
			"type":"VEC3"
		},
		{
			"bufferView":8,
			"componentType":5126,
			"count":271,
			"type":"VEC3"
		},
		{
			"bufferView":9,
			"componentType":5126,
			"count":271,
			"type":"VEC2"
		},
		{
			"bufferView":10,
			"componentType":5123,
			"count":1320,
			"type":"SCALAR"
		},
		{
			"bufferView":11,
			"componentType":5126,
			"count":271,
			"max":[
				0.5500001311302185,
				0.550000011920929,
				0.5500002503395081
			],
			"min":[
				-0.5500003695487976,
				-0.550000011920929,
				-0.5500003695487976
			],
			"type":"VEC3"
		},
		{
			"bufferView":12,
			"componentType":5126,
			"count":271,
			"type":"VEC3"
		},
		{
			"bufferView":13,
			"componentType":5126,
			"count":271,
			"type":"VEC2"
		},
		{
			"bufferView":14,
			"componentType":5123,
			"count":1320,
			"type":"SCALAR"
		},
		{
			"bufferView":15,
			"componentType":5126,
			"count":271,
			"max":[
				0.06000000238418579,
				0.05999999865889549,
				0.06000000983476639
			],
			"min":[
				-0.060000017285346985,
				-0.05999999865889549,
				-0.05999999865889549
			],
			"type":"VEC3"
		},
		{
			"bufferView":16,
			"componentType":5126,
			"count":271,
			"type":"VEC3"
		},
		{
			"bufferView":17,
			"componentType":5126,
			"count":271,
			"type":"VEC2"
		},
		{
			"bufferView":18,
			"componentType":5123,
			"count":1320,
			"type":"SCALAR"
		},
		{
			"bufferView":19,
			"componentType":5126,
			"count":271,
			"max":[
				0.06000000238418579,
				0.05999999865889549,
				0.06000000983476639
			],
			"min":[
				-0.060000017285346985,
				-0.05999999865889549,
				-0.05999999865889549
			],
			"type":"VEC3"
		},
		{
			"bufferView":20,
			"componentType":5126,
			"count":271,
			"type":"VEC3"
		},
		{
			"bufferView":21,
			"componentType":5126,
			"count":271,
			"type":"VEC2"
		},
		{
			"bufferView":22,
			"componentType":5126,
			"count":271,
			"max":[
				0.1300000101327896,
				0.12999999523162842,
				0.130000039935112
			],
			"min":[
				-0.1300000548362732,
				-0.12999999523162842,
				-0.1300000697374344
			],
			"type":"VEC3"
		},
		{
			"bufferView":23,
			"componentType":5126,
			"count":271,
			"type":"VEC3"
		},
		{
			"bufferView":24,
			"componentType":5126,
			"count":271,
			"type":"VEC2"
		},
		{
			"bufferView":25,
			"componentType":5126,
			"count":271,
			"max":[
				0.07000000029802322,
				0.07000000029802322,
				0.06999999284744263
			],
			"min":[
				-0.06999999284744263,
				-0.07000000029802322,
				-0.06999999284744263
			],
			"type":"VEC3"
		},
		{
			"bufferView":26,
			"componentType":5126,
			"count":271,
			"type":"VEC3"
		},
		{
			"bufferView":27,
			"componentType":5126,
			"count":271,
			"type":"VEC2"
		},
		{
			"bufferView":28,
			"componentType":5123,
			"count":1320,
			"type":"SCALAR"
		},
		{
			"bufferView":29,
			"componentType":5126,
			"count":271,
			"max":[
				0.1300000101327896,
				0.12999999523162842,
				0.130000039935112
			],
			"min":[
				-0.1300000548362732,
				-0.12999999523162842,
				-0.1300000697374344
			],
			"type":"VEC3"
		},
		{
			"bufferView":30,
			"componentType":5126,
			"count":271,
			"type":"VEC3"
		},
		{
			"bufferView":31,
			"componentType":5126,
			"count":271,
			"type":"VEC2"
		},
		{
			"bufferView":32,
			"componentType":5126,
			"count":271,
			"max":[
				0.07000000029802322,
				0.07000000029802322,
				0.06999999284744263
			],
			"min":[
				-0.06999999284744263,
				-0.07000000029802322,
				-0.06999999284744263
			],
			"type":"VEC3"
		},
		{
			"bufferView":33,
			"componentType":5126,
			"count":271,
			"type":"VEC3"
		},
		{
			"bufferView":34,
			"componentType":5126,
			"count":271,
			"type":"VEC2"
		},
		{
			"bufferView":35,
			"componentType":5126,
			"count":271,
			"max":[
				0.06000000238418579,
				0.05999999865889549,
				0.06000000983476639
			],
			"min":[
				-0.060000017285346985,
				-0.05999999865889549,
				-0.05999999865889549
			],
			"type":"VEC3"
		},
		{
			"bufferView":36,
			"componentType":5126,
			"count":271,
			"type":"VEC3"
		},
		{
			"bufferView":37,
			"componentType":5126,
			"count":271,
			"type":"VEC2"
		},
		{
			"bufferView":38,
			"componentType":5126,
			"count":271,
			"max":[
				0.06000000238418579,
				0.05999999865889549,
				0.06000000983476639
			],
			"min":[
				-0.060000017285346985,
				-0.05999999865889549,
				-0.05999999865889549
			],
			"type":"VEC3"
		},
		{
			"bufferView":39,
			"componentType":5126,
			"count":271,
			"type":"VEC3"
		},
		{
			"bufferView":40,
			"componentType":5126,
			"count":271,
			"type":"VEC2"
		},
		{
			"bufferView":41,
			"componentType":5126,
			"count":271,
			"max":[
				0.1300000101327896,
				0.12999999523162842,
				0.130000039935112
			],
			"min":[
				-0.1300000548362732,
				-0.12999999523162842,
				-0.1300000697374344
			],
			"type":"VEC3"
		},
		{
			"bufferView":42,
			"componentType":5126,
			"count":271,
			"type":"VEC3"
		},
		{
			"bufferView":43,
			"componentType":5126,
			"count":271,
			"type":"VEC2"
		},
		{
			"bufferView":44,
			"componentType":5126,
			"count":271,
			"max":[
				0.12000000476837158,
				0.11999999731779099,
				0.12000001966953278
			],
			"min":[
				-0.12000003457069397,
				-0.11999999731779099,
				-0.11999999731779099
			],
			"type":"VEC3"
		},
		{
			"bufferView":45,
			"componentType":5126,
			"count":271,
			"type":"VEC3"
		},
		{
			"bufferView":46,
			"componentType":5126,
			"count":271,
			"type":"VEC2"
		},
		{
			"bufferView":47,
			"componentType":5126,
			"count":271,
			"max":[
				0.1300000101327896,
				0.12999999523162842,
				0.130000039935112
			],
			"min":[
				-0.1300000548362732,
				-0.12999999523162842,
				-0.1300000697374344
			],
			"type":"VEC3"
		},
		{
			"bufferView":48,
			"componentType":5126,
			"count":271,
			"type":"VEC3"
		},
		{
			"bufferView":49,
			"componentType":5126,
			"count":271,
			"type":"VEC2"
		},
		{
			"bufferView":50,
			"componentType":5126,
			"count":271,
			"max":[
				0.12000000476837158,
				0.11999999731779099,
				0.12000001966953278
			],
			"min":[
				-0.12000003457069397,
				-0.11999999731779099,
				-0.11999999731779099
			],
			"type":"VEC3"
		},
		{
			"bufferView":51,
			"componentType":5126,
			"count":271,
			"type":"VEC3"
		},
		{
			"bufferView":52,
			"componentType":5126,
			"count":271,
			"type":"VEC2"
		},
		{
			"bufferView":53,
			"componentType":5126,
			"count":271,
			"max":[
				0.48000001907348633,
				0.47999998927116394,
				0.4800000786781311
			],
			"min":[
				-0.4800001382827759,
				-0.47999998927116394,
				-0.47999998927116394
			],
			"type":"VEC3"
		},
		{
			"bufferView":54,
			"componentType":5126,
			"count":271,
			"type":"VEC3"
		},
		{
			"bufferView":55,
			"componentType":5126,
			"count":271,
			"type":"VEC2"
		},
		{
			"bufferView":56,
			"componentType":5123,
			"count":1320,
			"type":"SCALAR"
		},
		{
			"bufferView":57,
			"componentType":5126,
			"count":271,
			"max":[
				0.05000000447034836,
				0.05000000074505806,
				0.050000011920928955
			],
			"min":[
				-0.05000001937150955,
				-0.05000000074505806,
				-0.05000000074505806
			],
			"type":"VEC3"
		},
		{
			"bufferView":58,
			"componentType":5126,
			"count":271,
			"type":"VEC3"
		},
		{
			"bufferView":59,
			"componentType":5126,
			"count":271,
			"type":"VEC2"
		},
		{
			"bufferView":60,
			"componentType":5123,
			"count":1320,
			"type":"SCALAR"
		}
	],
	"bufferViews":[
		{
			"buffer":0,
			"byteLength":3252,
			"byteOffset":0,
			"target":34962
		},
		{
			"buffer":0,
			"byteLength":3252,
			"byteOffset":3252,
			"target":34962
		},
		{
			"buffer":0,
			"byteLength":2168,
			"byteOffset":6504,
			"target":34962
		},
		{
			"buffer":0,
			"byteLength":2640,
			"byteOffset":8672,
			"target":34963
		},
		{
			"buffer":0,
			"byteLength":3252,
			"byteOffset":11312,
			"target":34962
		},
		{
			"buffer":0,
			"byteLength":3252,
			"byteOffset":14564,
			"target":34962
		},
		{
			"buffer":0,
			"byteLength":2168,
			"byteOffset":17816,
			"target":34962
		},
		{
			"buffer":0,
			"byteLength":3252,
			"byteOffset":19984,
			"target":34962
		},
		{
			"buffer":0,
			"byteLength":3252,
			"byteOffset":23236,
			"target":34962
		},
		{
			"buffer":0,
			"byteLength":2168,
			"byteOffset":26488,
			"target":34962
		},
		{
			"buffer":0,
			"byteLength":2640,
			"byteOffset":28656,
			"target":34963
		},
		{
			"buffer":0,
			"byteLength":3252,
			"byteOffset":31296,
			"target":34962
		},
		{
			"buffer":0,
			"byteLength":3252,
			"byteOffset":34548,
			"target":34962
		},
		{
			"buffer":0,
			"byteLength":2168,
			"byteOffset":37800,
			"target":34962
		},
		{
			"buffer":0,
			"byteLength":2640,
			"byteOffset":39968,
			"target":34963
		},
		{
			"buffer":0,
			"byteLength":3252,
			"byteOffset":42608,
			"target":34962
		},
		{
			"buffer":0,
			"byteLength":3252,
			"byteOffset":45860,
			"target":34962
		},
		{
			"buffer":0,
			"byteLength":2168,
			"byteOffset":49112,
			"target":34962
		},
		{
			"buffer":0,
			"byteLength":2640,
			"byteOffset":51280,
			"target":34963
		},
		{
			"buffer":0,
			"byteLength":3252,
			"byteOffset":53920,
			"target":34962
		},
		{
			"buffer":0,
			"byteLength":3252,
			"byteOffset":57172,
			"target":34962
		},
		{
			"buffer":0,
			"byteLength":2168,
			"byteOffset":60424,
			"target":34962
		},
		{
			"buffer":0,
			"byteLength":3252,
			"byteOffset":62592,
			"target":34962
		},
		{
			"buffer":0,
			"byteLength":3252,
			"byteOffset":65844,
			"target":34962
		},
		{
			"buffer":0,
			"byteLength":2168,
			"byteOffset":69096,
			"target":34962
		},
		{
			"buffer":0,
			"byteLength":3252,
			"byteOffset":71264,
			"target":34962
		},
		{
			"buffer":0,
			"byteLength":3252,
			"byteOffset":74516,
			"target":34962
		},
		{
			"buffer":0,
			"byteLength":2168,
			"byteOffset":77768,
			"target":34962
		},
		{
			"buffer":0,
			"byteLength":2640,
			"byteOffset":79936,
			"target":34963
		},
		{
			"buffer":0,
			"byteLength":3252,
			"byteOffset":82576,
			"target":34962
		},
		{
			"buffer":0,
			"byteLength":3252,
			"byteOffset":85828,
			"target":34962
		},
		{
			"buffer":0,
			"byteLength":2168,
			"byteOffset":89080,
			"target":34962
		},
		{
			"buffer":0,
			"byteLength":3252,
			"byteOffset":91248,
			"target":34962
		},
		{
			"buffer":0,
			"byteLength":3252,
			"byteOffset":94500,
			"target":34962
		},
		{
			"buffer":0,
			"byteLength":2168,
			"byteOffset":97752,
			"target":34962
		},
		{
			"buffer":0,
			"byteLength":3252,
			"byteOffset":99920,
			"target":34962
		},
		{
			"buffer":0,
			"byteLength":3252,
			"byteOffset":103172,
			"target":34962
		},
		{
			"buffer":0,
			"byteLength":2168,
			"byteOffset":106424,
			"target":34962
		},
		{
			"buffer":0,
			"byteLength":3252,
			"byteOffset":108592,
			"target":34962
		},
		{
			"buffer":0,
			"byteLength":3252,
			"byteOffset":111844,
			"target":34962
		},
		{
			"buffer":0,
			"byteLength":2168,
			"byteOffset":115096,
			"target":34962
		},
		{
			"buffer":0,
			"byteLength":3252,
			"byteOffset":117264,
			"target":34962
		},
		{
			"buffer":0,
			"byteLength":3252,
			"byteOffset":120516,
			"target":34962
		},
		{
			"buffer":0,
			"byteLength":2168,
			"byteOffset":123768,
			"target":34962
		},
		{
			"buffer":0,
			"byteLength":3252,
			"byteOffset":125936,
			"target":34962
		},
		{
			"buffer":0,
			"byteLength":3252,
			"byteOffset":129188,
			"target":34962
		},
		{
			"buffer":0,
			"byteLength":2168,
			"byteOffset":132440,
			"target":34962
		},
		{
			"buffer":0,
			"byteLength":3252,
			"byteOffset":134608,
			"target":34962
		},
		{
			"buffer":0,
			"byteLength":3252,
			"byteOffset":137860,
			"target":34962
		},
		{
			"buffer":0,
			"byteLength":2168,
			"byteOffset":141112,
			"target":34962
		},
		{
			"buffer":0,
			"byteLength":3252,
			"byteOffset":143280,
			"target":34962
		},
		{
			"buffer":0,
			"byteLength":3252,
			"byteOffset":146532,
			"target":34962
		},
		{
			"buffer":0,
			"byteLength":2168,
			"byteOffset":149784,
			"target":34962
		},
		{
			"buffer":0,
			"byteLength":3252,
			"byteOffset":151952,
			"target":34962
		},
		{
			"buffer":0,
			"byteLength":3252,
			"byteOffset":155204,
			"target":34962
		},
		{
			"buffer":0,
			"byteLength":2168,
			"byteOffset":158456,
			"target":34962
		},
		{
			"buffer":0,
			"byteLength":2640,
			"byteOffset":160624,
			"target":34963
		},
		{
			"buffer":0,
			"byteLength":3252,
			"byteOffset":163264,
			"target":34962
		},
		{
			"buffer":0,
			"byteLength":3252,
			"byteOffset":166516,
			"target":34962
		},
		{
			"buffer":0,
			"byteLength":2168,
			"byteOffset":169768,
			"target":34962
		},
		{
			"buffer":0,
			"byteLength":2640,
			"byteOffset":171936,
			"target":34963
		}
	],
	"buffers":[
		{
			"byteLength":174576,
			"uri":"bunny.bin"
		}
	]
}
