{
  "asset": {
    "generator": "Khronos glTF Blender I/O v5.1.19",
    "version": "2.0"
  },
  "scene": 0,
  "scenes": [
    {
      "name": "Scene",
      "nodes": [
        0,
        1,
        2,
        3,
        4,
        5
      ]
    }
  ],
  "nodes": [
    {
      "mesh": 0,
      "name": "AppleTrunk",
      "translation": [
        0,
        0.699999988079071,
        0
      ]
    },
    {
      "mesh": 1,
      "name": "AppleCanopyA",
      "scale": [
        1,
        0.8500000238418579,
        1
      ],
      "translation": [
        0,
        1.600000023841858,
        0
      ]
    },
    {
      "mesh": 2,
      "name": "AppleCanopyB",
      "scale": [
        1,
        0.800000011920929,
        1
      ],
      "translation": [
        0.4000000059604645,
        1.7000000476837158,
        -0.20000000298023224
      ]
    },
    {
      "mesh": 3,
      "name": "AppleCanopyC",
      "scale": [
        1,
        0.800000011920929,
        1
      ],
      "translation": [
        -0.4000000059604645,
        1.7000000476837158,
        0.20000000298023224
      ]
    },
    {
      "mesh": 4,
      "name": "Apple1",
      "translation": [
        0.30000001192092896,
        1.399999976158142,
        -0.30000001192092896
      ]
    },
    {
      "mesh": 5,
      "name": "Apple2",
      "translation": [
        -0.4000000059604645,
        1.5,
        -0.10000000149011612
      ]
    }
  ],
  "materials": [
    {
      "doubleSided": true,
      "name": "ForBark",
      "pbrMetallicRoughness": {
        "baseColorFactor": [
          0.35,
          0.22,
          0.12,
          1.0
        ],
        "metallicFactor": 0,
        "roughnessFactor": 0.5
      }
    },
    {
      "doubleSided": true,
      "name": "AdvPalmG",
      "pbrMetallicRoughness": {
        "baseColorFactor": [
          0.32,
          0.62,
          0.25,
          1.0
        ],
        "metallicFactor": 0,
        "roughnessFactor": 0.5
      }
    },
    {
      "doubleSided": true,
      "name": "AdvFlagRed",
      "pbrMetallicRoughness": {
        "baseColorFactor": [
          0.85,
          0.2,
          0.2,
          1.0
        ],
        "metallicFactor": 0,
        "roughnessFactor": 0.5
      }
    }
  ],
  "meshes": [
    {
      "name": "Cylinder.002",
      "primitives": [
        {
          "attributes": {
            "POSITION": 0,
            "NORMAL": 1,
            "TEXCOORD_0": 2
          },
          "indices": 3,
          "material": 0
        }
      ]
    },
    {
      "name": "Sphere",
      "primitives": [
        {
          "attributes": {
            "POSITION": 4,
            "NORMAL": 5,
            "TEXCOORD_0": 6
          },
          "indices": 7,
          "material": 1
        }
      ]
    },
    {
      "name": "Sphere.001",
      "primitives": [
        {
          "attributes": {
            "POSITION": 8,
            "NORMAL": 9,
            "TEXCOORD_0": 10
          },
          "indices": 7,
          "material": 1
        }
      ]
    },
    {
      "name": "Sphere.002",
      "primitives": [
        {
          "attributes": {
            "POSITION": 11,
            "NORMAL": 12,
            "TEXCOORD_0": 13
          },
          "indices": 7,
          "material": 1
        }
      ]
    },
    {
      "name": "Sphere.003",
      "primitives": [
        {
          "attributes": {
            "POSITION": 14,
            "NORMAL": 15,
            "TEXCOORD_0": 16
          },
          "indices": 7,
          "material": 2
        }
      ]
    },
    {
      "name": "Sphere.004",
      "primitives": [
        {
          "attributes": {
            "POSITION": 17,
            "NORMAL": 18,
            "TEXCOORD_0": 19
          },
          "indices": 7,
          "material": 2
        }
      ]
    }
  ],
  "accessors": [
    {
      "bufferView": 0,
      "componentType": 5126,
      "count": 50,
      "max": [
        0.18000000715255737,
        0.699999988079071,
        0.18000000715255737
      ],
      "min": [
        -0.18000000715255737,
        -0.699999988079071,
        -0.18000000715255737
      ],
      "type": "VEC3"
    },
    {
      "bufferView": 1,
      "componentType": 5126,
      "count": 50,
      "type": "VEC3"
    },
    {
      "bufferView": 2,
      "componentType": 5126,
      "count": 50,
      "type": "VEC2"
    },
    {
      "bufferView": 3,
      "componentType": 5123,
      "count": 132,
      "type": "SCALAR"
    },
    {
      "bufferView": 4,
      "componentType": 5126,
      "count": 163,
      "max": [
        0.6824495196342468,
        0.699999988079071,
        0.7000000476837158
      ],
      "min": [
        -0.6824496388435364,
        -0.699999988079071,
        -0.699999988079071
      ],
      "type": "VEC3"
    },
    {
      "bufferView": 5,
      "componentType": 5126,
      "count": 163,
      "type": "VEC3"
    },
    {
      "bufferView": 6,
      "componentType": 5126,
      "count": 163,
      "type": "VEC2"
    },
    {
      "bufferView": 7,
      "componentType": 5123,
      "count": 756,
      "type": "SCALAR"
    },
    {
      "bufferView": 8,
      "componentType": 5126,
      "count": 163,
      "max": [
        0.48746395111083984,
        0.5,
        0.4999999403953552
      ],
      "min": [
        -0.48746392130851746,
        -0.5,
        -0.5
      ],
      "type": "VEC3"
    },
    {
      "bufferView": 9,
      "componentType": 5126,
      "count": 163,
      "type": "VEC3"
    },
    {
      "bufferView": 10,
      "componentType": 5126,
      "count": 163,
      "type": "VEC2"
    },
    {
      "bufferView": 11,
      "componentType": 5126,
      "count": 163,
      "max": [
        0.48746395111083984,
        0.5,
        0.4999999403953552
      ],
      "min": [
        -0.48746392130851746,
        -0.5,
        -0.5
      ],
      "type": "VEC3"
    },
    {
      "bufferView": 12,
      "componentType": 5126,
      "count": 163,
      "type": "VEC3"
    },
    {
      "bufferView": 13,
      "componentType": 5126,
      "count": 163,
      "type": "VEC2"
    },
    {
      "bufferView": 14,
      "componentType": 5126,
      "count": 163,
      "max": [
        0.09749279171228409,
        0.10000000149011612,
        0.09999999403953552
      ],
      "min": [
        -0.09749278426170349,
        -0.10000000149011612,
        -0.10000000149011612
      ],
      "type": "VEC3"
    },
    {
      "bufferView": 15,
      "componentType": 5126,
      "count": 163,
      "type": "VEC3"
    },
    {
      "bufferView": 16,
      "componentType": 5126,
      "count": 163,
      "type": "VEC2"
    },
    {
      "bufferView": 17,
      "componentType": 5126,
      "count": 163,
      "max": [
        0.09749279171228409,
        0.10000000149011612,
        0.09999999403953552
      ],
      "min": [
        -0.09749278426170349,
        -0.10000000149011612,
        -0.10000000149011612
      ],
      "type": "VEC3"
    },
    {
      "bufferView": 18,
      "componentType": 5126,
      "count": 163,
      "type": "VEC3"
    },
    {
      "bufferView": 19,
      "componentType": 5126,
      "count": 163,
      "type": "VEC2"
    }
  ],
  "bufferViews": [
    {
      "buffer": 0,
      "byteLength": 600,
      "byteOffset": 0,
      "target": 34962
    },
    {
      "buffer": 0,
      "byteLength": 600,
      "byteOffset": 600,
      "target": 34962
    },
    {
      "buffer": 0,
      "byteLength": 400,
      "byteOffset": 1200,
      "target": 34962
    },
    {
      "buffer": 0,
      "byteLength": 264,
      "byteOffset": 1600,
      "target": 34963
    },
    {
      "buffer": 0,
      "byteLength": 1956,
      "byteOffset": 1864,
      "target": 34962
    },
    {
      "buffer": 0,
      "byteLength": 1956,
      "byteOffset": 3820,
      "target": 34962
    },
    {
      "buffer": 0,
      "byteLength": 1304,
      "byteOffset": 5776,
      "target": 34962
    },
    {
      "buffer": 0,
      "byteLength": 1512,
      "byteOffset": 7080,
      "target": 34963
    },
    {
      "buffer": 0,
      "byteLength": 1956,
      "byteOffset": 8592,
      "target": 34962
    },
    {
      "buffer": 0,
      "byteLength": 1956,
      "byteOffset": 10548,
      "target": 34962
    },
    {
      "buffer": 0,
      "byteLength": 1304,
      "byteOffset": 12504,
      "target": 34962
    },
    {
      "buffer": 0,
      "byteLength": 1956,
      "byteOffset": 13808,
      "target": 34962
    },
    {
      "buffer": 0,
      "byteLength": 1956,
      "byteOffset": 15764,
      "target": 34962
    },
    {
      "buffer": 0,
      "byteLength": 1304,
      "byteOffset": 17720,
      "target": 34962
    },
    {
      "buffer": 0,
      "byteLength": 1956,
      "byteOffset": 19024,
      "target": 34962
    },
    {
      "buffer": 0,
      "byteLength": 1956,
      "byteOffset": 20980,
      "target": 34962
    },
    {
      "buffer": 0,
      "byteLength": 1304,
      "byteOffset": 22936,
      "target": 34962
    },
    {
      "buffer": 0,
      "byteLength": 1956,
      "byteOffset": 24240,
      "target": 34962
    },
    {
      "buffer": 0,
      "byteLength": 1956,
      "byteOffset": 26196,
      "target": 34962
    },
    {
      "buffer": 0,
      "byteLength": 1304,
      "byteOffset": 28152,
      "target": 34962
    }
  ],
  "buffers": [
    {
      "byteLength": 29456,
      "uri": "apple_tree.bin"
    }
  ]
}