{
  "asset": {
    "generator": "Khronos glTF Blender I/O v5.1.19",
    "version": "2.0"
  },
  "scene": 0,
  "scenes": [
    {
      "name": "Scene",
      "nodes": [
        1
      ]
    }
  ],
  "nodes": [
    {
      "mesh": 0,
      "name": "CoinStar",
      "scale": [
        0.07000000029802322,
        0.009999999776482582,
        0.07000000029802322
      ],
      "translation": [
        0,
        0.07000000029802322,
        0
      ]
    },
    {
      "children": [
        0
      ],
      "mesh": 1,
      "name": "Coin",
      "translation": [
        0,
        0.029999999329447746,
        0
      ]
    }
  ],
  "materials": [
    {
      "doubleSided": true,
      "name": "PropWoodDark",
      "pbrMetallicRoughness": {
        "baseColorFactor": [
          0.4,
          0.28,
          0.16,
          1.0
        ],
        "metallicFactor": 0,
        "roughnessFactor": 0.5
      }
    },
    {
      "doubleSided": true,
      "name": "PropGold",
      "pbrMetallicRoughness": {
        "baseColorFactor": [
          0.95,
          0.75,
          0.2,
          1.0
        ],
        "metallicFactor": 1.0,
        "roughnessFactor": 0.2
      }
    }
  ],
  "meshes": [
    {
      "name": "Cube.005",
      "primitives": [
        {
          "attributes": {
            "POSITION": 0,
            "NORMAL": 1,
            "TEXCOORD_0": 2
          },
          "indices": 3,
          "material": 0
        }
      ]
    },
    {
      "name": "Cylinder.001",
      "primitives": [
        {
          "attributes": {
            "POSITION": 4,
            "NORMAL": 5,
            "TEXCOORD_0": 6
          },
          "indices": 7,
          "material": 1
        }
      ]
    }
  ],
  "accessors": [
    {
      "bufferView": 0,
      "componentType": 5126,
      "count": 24,
      "max": [
        0.5,
        0.5,
        0.5
      ],
      "min": [
        -0.5,
        -0.5,
        -0.5
      ],
      "type": "VEC3"
    },
    {
      "bufferView": 1,
      "componentType": 5126,
      "count": 24,
      "type": "VEC3"
    },
    {
      "bufferView": 2,
      "componentType": 5126,
      "count": 24,
      "type": "VEC2"
    },
    {
      "bufferView": 3,
      "componentType": 5123,
      "count": 36,
      "type": "SCALAR"
    },
    {
      "bufferView": 4,
      "componentType": 5126,
      "count": 98,
      "max": [
        0.18000000715255737,
        0.029999999329447746,
        0.18000000715255737
      ],
      "min": [
        -0.18000000715255737,
        -0.029999999329447746,
        -0.18000000715255737
      ],
      "type": "VEC3"
    },
    {
      "bufferView": 5,
      "componentType": 5126,
      "count": 98,
      "type": "VEC3"
    },
    {
      "bufferView": 6,
      "componentType": 5126,
      "count": 98,
      "type": "VEC2"
    },
    {
      "bufferView": 7,
      "componentType": 5123,
      "count": 276,
      "type": "SCALAR"
    }
  ],
  "bufferViews": [
    {
      "buffer": 0,
      "byteLength": 288,
      "byteOffset": 0,
      "target": 34962
    },
    {
      "buffer": 0,
      "byteLength": 288,
      "byteOffset": 288,
      "target": 34962
    },
    {
      "buffer": 0,
      "byteLength": 192,
      "byteOffset": 576,
      "target": 34962
    },
    {
      "buffer": 0,
      "byteLength": 72,
      "byteOffset": 768,
      "target": 34963
    },
    {
      "buffer": 0,
      "byteLength": 1176,
      "byteOffset": 840,
      "target": 34962
    },
    {
      "buffer": 0,
      "byteLength": 1176,
      "byteOffset": 2016,
      "target": 34962
    },
    {
      "buffer": 0,
      "byteLength": 784,
      "byteOffset": 3192,
      "target": 34962
    },
    {
      "buffer": 0,
      "byteLength": 552,
      "byteOffset": 3976,
      "target": 34963
    }
  ],
  "buffers": [
    {
      "byteLength": 4528,
      "uri": "coin.bin"
    }
  ]
}