{
  "asset": {
    "generator": "Khronos glTF Blender I/O v5.1.19",
    "version": "2.0"
  },
  "scene": 0,
  "scenes": [
    {
      "name": "Scene",
      "nodes": [
        0,
        1,
        2
      ]
    }
  ],
  "nodes": [
    {
      "mesh": 0,
      "name": "JarBody",
      "translation": [
        0,
        0.47249999921768904,
        0
      ]
    },
    {
      "mesh": 1,
      "name": "JarLid",
      "translation": [
        0,
        0.6525000063702464,
        0
      ]
    },
    {
      "mesh": 2,
      "name": "Firefly",
      "translation": [
        0,
        0.4924999950453639,
        0
      ]
    }
  ],
  "materials": [
    {
      "doubleSided": true,
      "name": "JarGlass",
      "pbrMetallicRoughness": {
        "baseColorFactor": [
          0.85,
          0.92,
          0.92,
          1.0
        ],
        "metallicFactor": 0.5,
        "roughnessFactor": 0.05
      }
    },
    {
      "doubleSided": true,
      "name": "JarLid",
      "pbrMetallicRoughness": {
        "baseColorFactor": [
          0.75,
          0.55,
          0.25,
          1.0
        ],
        "metallicFactor": 0.8,
        "roughnessFactor": 0.3
      }
    },
    {
      "doubleSided": true,
      "name": "ForGlow",
      "pbrMetallicRoughness": {
        "baseColorFactor": [
          0.95,
          0.95,
          0.55,
          1.0
        ],
        "metallicFactor": 0,
        "roughnessFactor": 0.5
      },
      "emissiveFactor": [
        0.4,
        0.4,
        0.1
      ]
    }
  ],
  "meshes": [
    {
      "name": "Cylinder.012",
      "primitives": [
        {
          "attributes": {
            "POSITION": 0,
            "NORMAL": 1,
            "TEXCOORD_0": 2
          },
          "indices": 3,
          "material": 0
        }
      ]
    },
    {
      "name": "Cylinder.013",
      "primitives": [
        {
          "attributes": {
            "POSITION": 4,
            "NORMAL": 5,
            "TEXCOORD_0": 6
          },
          "indices": 3,
          "material": 1
        }
      ]
    },
    {
      "name": "Sphere.028",
      "primitives": [
        {
          "attributes": {
            "POSITION": 7,
            "NORMAL": 8,
            "TEXCOORD_0": 9
          },
          "indices": 10,
          "material": 2
        }
      ]
    }
  ],
  "accessors": [
    {
      "bufferView": 0,
      "componentType": 5126,
      "count": 42,
      "max": [
        0.12363734841346741,
        0.15000000596046448,
        0.12999999523162842
      ],
      "min": [
        -0.12363734841346741,
        -0.15000000596046448,
        -0.12999999523162842
      ],
      "type": "VEC3"
    },
    {
      "bufferView": 1,
      "componentType": 5126,
      "count": 42,
      "type": "VEC3"
    },
    {
      "bufferView": 2,
      "componentType": 5126,
      "count": 42,
      "type": "VEC2"
    },
    {
      "bufferView": 3,
      "componentType": 5123,
      "count": 108,
      "type": "SCALAR"
    },
    {
      "bufferView": 4,
      "componentType": 5126,
      "count": 42,
      "max": [
        0.12363734841346741,
        0.02500000037252903,
        0.12999999523162842
      ],
      "min": [
        -0.12363734841346741,
        -0.02500000037252903,
        -0.12999999523162842
      ],
      "type": "VEC3"
    },
    {
      "bufferView": 5,
      "componentType": 5126,
      "count": 42,
      "type": "VEC3"
    },
    {
      "bufferView": 6,
      "componentType": 5126,
      "count": 42,
      "type": "VEC2"
    },
    {
      "bufferView": 7,
      "componentType": 5126,
      "count": 163,
      "max": [
        0.038997113704681396,
        0.03999999910593033,
        0.03999999165534973
      ],
      "min": [
        -0.0389971099793911,
        -0.03999999910593033,
        -0.03999999910593033
      ],
      "type": "VEC3"
    },
    {
      "bufferView": 8,
      "componentType": 5126,
      "count": 163,
      "type": "VEC3"
    },
    {
      "bufferView": 9,
      "componentType": 5126,
      "count": 163,
      "type": "VEC2"
    },
    {
      "bufferView": 10,
      "componentType": 5123,
      "count": 756,
      "type": "SCALAR"
    }
  ],
  "bufferViews": [
    {
      "buffer": 0,
      "byteLength": 504,
      "byteOffset": 0,
      "target": 34962
    },
    {
      "buffer": 0,
      "byteLength": 504,
      "byteOffset": 504,
      "target": 34962
    },
    {
      "buffer": 0,
      "byteLength": 336,
      "byteOffset": 1008,
      "target": 34962
    },
    {
      "buffer": 0,
      "byteLength": 216,
      "byteOffset": 1344,
      "target": 34963
    },
    {
      "buffer": 0,
      "byteLength": 504,
      "byteOffset": 1560,
      "target": 34962
    },
    {
      "buffer": 0,
      "byteLength": 504,
      "byteOffset": 2064,
      "target": 34962
    },
    {
      "buffer": 0,
      "byteLength": 336,
      "byteOffset": 2568,
      "target": 34962
    },
    {
      "buffer": 0,
      "byteLength": 1956,
      "byteOffset": 2904,
      "target": 34962
    },
    {
      "buffer": 0,
      "byteLength": 1956,
      "byteOffset": 4860,
      "target": 34962
    },
    {
      "buffer": 0,
      "byteLength": 1304,
      "byteOffset": 6816,
      "target": 34962
    },
    {
      "buffer": 0,
      "byteLength": 1512,
      "byteOffset": 8120,
      "target": 34963
    }
  ],
  "buffers": [
    {
      "byteLength": 9632,
      "uri": "firefly_jar.bin"
    }
  ]
}