{
  "asset": {
    "generator": "Khronos glTF Blender I/O v5.1.19",
    "version": "2.0"
  },
  "scene": 0,
  "scenes": [
    {
      "name": "Scene",
      "nodes": [
        0,
        1,
        2,
        3,
        4,
        5,
        6
      ]
    }
  ],
  "nodes": [
    {
      "mesh": 0,
      "name": "FlowCenter",
      "translation": [
        0,
        0.20000000298023224,
        0
      ]
    },
    {
      "mesh": 1,
      "name": "FlowPetal0",
      "scale": [
        1.2000000476837158,
        0.5,
        0.5
      ],
      "translation": [
        0.10000000149011612,
        0.2199999988079071,
        0
      ]
    },
    {
      "mesh": 2,
      "name": "FlowPetal1",
      "scale": [
        1.2000000476837158,
        0.5,
        0.5
      ],
      "translation": [
        0.030901700258255005,
        0.2199999988079071,
        -0.09510564804077148
      ]
    },
    {
      "mesh": 3,
      "name": "FlowPetal2",
      "scale": [
        1.2000000476837158,
        0.5,
        0.5
      ],
      "translation": [
        -0.08090169727802277,
        0.2199999988079071,
        -0.05877852439880371
      ]
    },
    {
      "mesh": 4,
      "name": "FlowPetal3",
      "scale": [
        1.2000000476837158,
        0.5,
        0.5
      ],
      "translation": [
        -0.08090169727802277,
        0.2199999988079071,
        0.05877852439880371
      ]
    },
    {
      "mesh": 5,
      "name": "FlowPetal4",
      "scale": [
        1.2000000476837158,
        0.5,
        0.5
      ],
      "translation": [
        0.030901700258255005,
        0.2199999988079071,
        0.09510564804077148
      ]
    },
    {
      "mesh": 6,
      "name": "FlowStem",
      "translation": [
        0,
        0.10000000149011612,
        0
      ]
    }
  ],
  "materials": [
    {
      "doubleSided": true,
      "name": "ForGlow",
      "pbrMetallicRoughness": {
        "baseColorFactor": [
          0.95,
          0.95,
          0.55,
          1.0
        ],
        "metallicFactor": 0,
        "roughnessFactor": 0.5
      },
      "emissiveFactor": [
        0.4,
        0.4,
        0.1
      ]
    },
    {
      "doubleSided": true,
      "name": "ForFlowP",
      "pbrMetallicRoughness": {
        "baseColorFactor": [
          0.95,
          0.55,
          0.85,
          1.0
        ],
        "metallicFactor": 0,
        "roughnessFactor": 0.5
      }
    },
    {
      "doubleSided": true,
      "name": "AdvPalmG",
      "pbrMetallicRoughness": {
        "baseColorFactor": [
          0.32,
          0.62,
          0.25,
          1.0
        ],
        "metallicFactor": 0,
        "roughnessFactor": 0.5
      }
    }
  ],
  "meshes": [
    {
      "name": "Sphere.017",
      "primitives": [
        {
          "attributes": {
            "POSITION": 0,
            "NORMAL": 1,
            "TEXCOORD_0": 2
          },
          "indices": 3,
          "material": 0
        }
      ]
    },
    {
      "name": "Sphere.018",
      "primitives": [
        {
          "attributes": {
            "POSITION": 4,
            "NORMAL": 5,
            "TEXCOORD_0": 6
          },
          "indices": 7,
          "material": 1
        }
      ]
    },
    {
      "name": "Sphere.019",
      "primitives": [
        {
          "attributes": {
            "POSITION": 8,
            "NORMAL": 9,
            "TEXCOORD_0": 10
          },
          "indices": 7,
          "material": 1
        }
      ]
    },
    {
      "name": "Sphere.020",
      "primitives": [
        {
          "attributes": {
            "POSITION": 11,
            "NORMAL": 12,
            "TEXCOORD_0": 13
          },
          "indices": 7,
          "material": 1
        }
      ]
    },
    {
      "name": "Sphere.021",
      "primitives": [
        {
          "attributes": {
            "POSITION": 14,
            "NORMAL": 15,
            "TEXCOORD_0": 16
          },
          "indices": 7,
          "material": 1
        }
      ]
    },
    {
      "name": "Sphere.022",
      "primitives": [
        {
          "attributes": {
            "POSITION": 17,
            "NORMAL": 18,
            "TEXCOORD_0": 19
          },
          "indices": 7,
          "material": 1
        }
      ]
    },
    {
      "name": "Cylinder.008",
      "primitives": [
        {
          "attributes": {
            "POSITION": 20,
            "NORMAL": 21,
            "TEXCOORD_0": 22
          },
          "indices": 23,
          "material": 2
        }
      ]
    }
  ],
  "accessors": [
    {
      "bufferView": 0,
      "componentType": 5126,
      "count": 163,
      "max": [
        0.07799422740936279,
        0.07999999821186066,
        0.07999998331069946
      ],
      "min": [
        -0.0779942199587822,
        -0.07999999821186066,
        -0.07999999821186066
      ],
      "type": "VEC3"
    },
    {
      "bufferView": 1,
      "componentType": 5126,
      "count": 163,
      "type": "VEC3"
    },
    {
      "bufferView": 2,
      "componentType": 5126,
      "count": 163,
      "type": "VEC2"
    },
    {
      "bufferView": 3,
      "componentType": 5123,
      "count": 756,
      "type": "SCALAR"
    },
    {
      "bufferView": 4,
      "componentType": 5126,
      "count": 163,
      "max": [
        0.06824494898319244,
        0.07000000029802322,
        0.06999998539686203
      ],
      "min": [
        -0.06824493408203125,
        -0.07000000029802322,
        -0.07000000029802322
      ],
      "type": "VEC3"
    },
    {
      "bufferView": 5,
      "componentType": 5126,
      "count": 163,
      "type": "VEC3"
    },
    {
      "bufferView": 6,
      "componentType": 5126,
      "count": 163,
      "type": "VEC2"
    },
    {
      "bufferView": 7,
      "componentType": 5123,
      "count": 756,
      "type": "SCALAR"
    },
    {
      "bufferView": 8,
      "componentType": 5126,
      "count": 163,
      "max": [
        0.06824494898319244,
        0.07000000029802322,
        0.06999998539686203
      ],
      "min": [
        -0.06824493408203125,
        -0.07000000029802322,
        -0.07000000029802322
      ],
      "type": "VEC3"
    },
    {
      "bufferView": 9,
      "componentType": 5126,
      "count": 163,
      "type": "VEC3"
    },
    {
      "bufferView": 10,
      "componentType": 5126,
      "count": 163,
      "type": "VEC2"
    },
    {
      "bufferView": 11,
      "componentType": 5126,
      "count": 163,
      "max": [
        0.06824494898319244,
        0.07000000029802322,
        0.06999998539686203
      ],
      "min": [
        -0.06824493408203125,
        -0.07000000029802322,
        -0.07000000029802322
      ],
      "type": "VEC3"
    },
    {
      "bufferView": 12,
      "componentType": 5126,
      "count": 163,
      "type": "VEC3"
    },
    {
      "bufferView": 13,
      "componentType": 5126,
      "count": 163,
      "type": "VEC2"
    },
    {
      "bufferView": 14,
      "componentType": 5126,
      "count": 163,
      "max": [
        0.06824494898319244,
        0.07000000029802322,
        0.06999998539686203
      ],
      "min": [
        -0.06824493408203125,
        -0.07000000029802322,
        -0.07000000029802322
      ],
      "type": "VEC3"
    },
    {
      "bufferView": 15,
      "componentType": 5126,
      "count": 163,
      "type": "VEC3"
    },
    {
      "bufferView": 16,
      "componentType": 5126,
      "count": 163,
      "type": "VEC2"
    },
    {
      "bufferView": 17,
      "componentType": 5126,
      "count": 163,
      "max": [
        0.06824494898319244,
        0.07000000029802322,
        0.06999998539686203
      ],
      "min": [
        -0.06824493408203125,
        -0.07000000029802322,
        -0.07000000029802322
      ],
      "type": "VEC3"
    },
    {
      "bufferView": 18,
      "componentType": 5126,
      "count": 163,
      "type": "VEC3"
    },
    {
      "bufferView": 19,
      "componentType": 5126,
      "count": 163,
      "type": "VEC2"
    },
    {
      "bufferView": 20,
      "componentType": 5126,
      "count": 26,
      "max": [
        0.012990380637347698,
        0.10000000149011612,
        0.014999999664723873
      ],
      "min": [
        -0.012990380637347698,
        -0.10000000149011612,
        -0.014999999664723873
      ],
      "type": "VEC3"
    },
    {
      "bufferView": 21,
      "componentType": 5126,
      "count": 26,
      "type": "VEC3"
    },
    {
      "bufferView": 22,
      "componentType": 5126,
      "count": 26,
      "type": "VEC2"
    },
    {
      "bufferView": 23,
      "componentType": 5123,
      "count": 60,
      "type": "SCALAR"
    }
  ],
  "bufferViews": [
    {
      "buffer": 0,
      "byteLength": 1956,
      "byteOffset": 0,
      "target": 34962
    },
    {
      "buffer": 0,
      "byteLength": 1956,
      "byteOffset": 1956,
      "target": 34962
    },
    {
      "buffer": 0,
      "byteLength": 1304,
      "byteOffset": 3912,
      "target": 34962
    },
    {
      "buffer": 0,
      "byteLength": 1512,
      "byteOffset": 5216,
      "target": 34963
    },
    {
      "buffer": 0,
      "byteLength": 1956,
      "byteOffset": 6728,
      "target": 34962
    },
    {
      "buffer": 0,
      "byteLength": 1956,
      "byteOffset": 8684,
      "target": 34962
    },
    {
      "buffer": 0,
      "byteLength": 1304,
      "byteOffset": 10640,
      "target": 34962
    },
    {
      "buffer": 0,
      "byteLength": 1512,
      "byteOffset": 11944,
      "target": 34963
    },
    {
      "buffer": 0,
      "byteLength": 1956,
      "byteOffset": 13456,
      "target": 34962
    },
    {
      "buffer": 0,
      "byteLength": 1956,
      "byteOffset": 15412,
      "target": 34962
    },
    {
      "buffer": 0,
      "byteLength": 1304,
      "byteOffset": 17368,
      "target": 34962
    },
    {
      "buffer": 0,
      "byteLength": 1956,
      "byteOffset": 18672,
      "target": 34962
    },
    {
      "buffer": 0,
      "byteLength": 1956,
      "byteOffset": 20628,
      "target": 34962
    },
    {
      "buffer": 0,
      "byteLength": 1304,
      "byteOffset": 22584,
      "target": 34962
    },
    {
      "buffer": 0,
      "byteLength": 1956,
      "byteOffset": 23888,
      "target": 34962
    },
    {
      "buffer": 0,
      "byteLength": 1956,
      "byteOffset": 25844,
      "target": 34962
    },
    {
      "buffer": 0,
      "byteLength": 1304,
      "byteOffset": 27800,
      "target": 34962
    },
    {
      "buffer": 0,
      "byteLength": 1956,
      "byteOffset": 29104,
      "target": 34962
    },
    {
      "buffer": 0,
      "byteLength": 1956,
      "byteOffset": 31060,
      "target": 34962
    },
    {
      "buffer": 0,
      "byteLength": 1304,
      "byteOffset": 33016,
      "target": 34962
    },
    {
      "buffer": 0,
      "byteLength": 312,
      "byteOffset": 34320,
      "target": 34962
    },
    {
      "buffer": 0,
      "byteLength": 312,
      "byteOffset": 34632,
      "target": 34962
    },
    {
      "buffer": 0,
      "byteLength": 208,
      "byteOffset": 34944,
      "target": 34962
    },
    {
      "buffer": 0,
      "byteLength": 120,
      "byteOffset": 35152,
      "target": 34963
    }
  ],
  "buffers": [
    {
      "byteLength": 35272,
      "uri": "flower_patch.bin"
    }
  ]
}