{
  "asset": {
    "generator": "Khronos glTF Blender I/O v5.1.19",
    "version": "2.0"
  },
  "scene": 0,
  "scenes": [
    {
      "name": "Scene",
      "nodes": [
        0,
        1,
        2,
        3,
        4
      ]
    }
  ],
  "nodes": [
    {
      "mesh": 0,
      "name": "GrassBlade_0",
      "rotation": [
        -0.05224499851465225,
        0.0013369879452511668,
        -0.02554740197956562,
        0.9983065724372864
      ],
      "translation": [
        0.05000000074505806,
        0.15000000596046448,
        0
      ]
    },
    {
      "mesh": 1,
      "name": "GrassBlade_1",
      "rotation": [
        0.04633941873908043,
        -0.002428743289783597,
        -0.052283816039562225,
        0.9975537061691284
      ],
      "translation": [
        0.015450850129127502,
        0.15000000596046448,
        -0.04755282402038574
      ]
    },
    {
      "mesh": 2,
      "name": "GrassBlade_2",
      "rotation": [
        -0.007246540393680334,
        -0.0004485872050281614,
        0.061783742159605026,
        0.9980631470680237
      ],
      "translation": [
        -0.04045084863901138,
        0.15000000596046448,
        -0.029389262199401855
      ]
    },
    {
      "mesh": 3,
      "name": "GrassBlade_3",
      "rotation": [
        0.06359611451625824,
        0.003448409726843238,
        0.054034121334552765,
        0.9965059161186218
      ],
      "translation": [
        -0.04045084863901138,
        0.15000000596046448,
        0.029389262199401855
      ]
    },
    {
      "mesh": 4,
      "name": "GrassBlade_4",
      "rotation": [
        -0.016369514167308807,
        0.0018603666685521603,
        -0.11290602385997772,
        0.9934690594673157
      ],
      "translation": [
        0.015450850129127502,
        0.15000000596046448,
        0.04755282402038574
      ]
    }
  ],
  "materials": [
    {
      "doubleSided": true,
      "name": "PropGrass",
      "pbrMetallicRoughness": {
        "baseColorFactor": [
          0.45,
          0.75,
          0.3,
          1.0
        ],
        "metallicFactor": 0,
        "roughnessFactor": 0.5
      }
    }
  ],
  "meshes": [
    {
      "name": "Cone",
      "primitives": [
        {
          "attributes": {
            "POSITION": 0,
            "NORMAL": 1,
            "TEXCOORD_0": 2
          },
          "indices": 3,
          "material": 0
        }
      ]
    },
    {
      "name": "Cone.001",
      "primitives": [
        {
          "attributes": {
            "POSITION": 4,
            "NORMAL": 5,
            "TEXCOORD_0": 6
          },
          "indices": 3,
          "material": 0
        }
      ]
    },
    {
      "name": "Cone.002",
      "primitives": [
        {
          "attributes": {
            "POSITION": 7,
            "NORMAL": 8,
            "TEXCOORD_0": 9
          },
          "indices": 3,
          "material": 0
        }
      ]
    },
    {
      "name": "Cone.003",
      "primitives": [
        {
          "attributes": {
            "POSITION": 10,
            "NORMAL": 11,
            "TEXCOORD_0": 12
          },
          "indices": 3,
          "material": 0
        }
      ]
    },
    {
      "name": "Cone.004",
      "primitives": [
        {
          "attributes": {
            "POSITION": 13,
            "NORMAL": 14,
            "TEXCOORD_0": 15
          },
          "indices": 3,
          "material": 0
        }
      ]
    }
  ],
  "accessors": [
    {
      "bufferView": 0,
      "componentType": 5126,
      "count": 24,
      "max": [
        0.03464101627469063,
        0.15000000596046448,
        0.03999999910593033
      ],
      "min": [
        -0.03464101627469063,
        -0.15000000596046448,
        -0.03999999910593033
      ],
      "type": "VEC3"
    },
    {
      "bufferView": 1,
      "componentType": 5126,
      "count": 24,
      "type": "VEC3"
    },
    {
      "bufferView": 2,
      "componentType": 5126,
      "count": 24,
      "type": "VEC2"
    },
    {
      "bufferView": 3,
      "componentType": 5123,
      "count": 30,
      "type": "SCALAR"
    },
    {
      "bufferView": 4,
      "componentType": 5126,
      "count": 24,
      "max": [
        0.03464101627469063,
        0.15000000596046448,
        0.03999999910593033
      ],
      "min": [
        -0.03464101627469063,
        -0.15000000596046448,
        -0.03999999910593033
      ],
      "type": "VEC3"
    },
    {
      "bufferView": 5,
      "componentType": 5126,
      "count": 24,
      "type": "VEC3"
    },
    {
      "bufferView": 6,
      "componentType": 5126,
      "count": 24,
      "type": "VEC2"
    },
    {
      "bufferView": 7,
      "componentType": 5126,
      "count": 24,
      "max": [
        0.03464101627469063,
        0.15000000596046448,
        0.03999999910593033
      ],
      "min": [
        -0.03464101627469063,
        -0.15000000596046448,
        -0.03999999910593033
      ],
      "type": "VEC3"
    },
    {
      "bufferView": 8,
      "componentType": 5126,
      "count": 24,
      "type": "VEC3"
    },
    {
      "bufferView": 9,
      "componentType": 5126,
      "count": 24,
      "type": "VEC2"
    },
    {
      "bufferView": 10,
      "componentType": 5126,
      "count": 24,
      "max": [
        0.03464101627469063,
        0.15000000596046448,
        0.03999999910593033
      ],
      "min": [
        -0.03464101627469063,
        -0.15000000596046448,
        -0.03999999910593033
      ],
      "type": "VEC3"
    },
    {
      "bufferView": 11,
      "componentType": 5126,
      "count": 24,
      "type": "VEC3"
    },
    {
      "bufferView": 12,
      "componentType": 5126,
      "count": 24,
      "type": "VEC2"
    },
    {
      "bufferView": 13,
      "componentType": 5126,
      "count": 24,
      "max": [
        0.03464101627469063,
        0.15000000596046448,
        0.03999999910593033
      ],
      "min": [
        -0.03464101627469063,
        -0.15000000596046448,
        -0.03999999910593033
      ],
      "type": "VEC3"
    },
    {
      "bufferView": 14,
      "componentType": 5126,
      "count": 24,
      "type": "VEC3"
    },
    {
      "bufferView": 15,
      "componentType": 5126,
      "count": 24,
      "type": "VEC2"
    }
  ],
  "bufferViews": [
    {
      "buffer": 0,
      "byteLength": 288,
      "byteOffset": 0,
      "target": 34962
    },
    {
      "buffer": 0,
      "byteLength": 288,
      "byteOffset": 288,
      "target": 34962
    },
    {
      "buffer": 0,
      "byteLength": 192,
      "byteOffset": 576,
      "target": 34962
    },
    {
      "buffer": 0,
      "byteLength": 60,
      "byteOffset": 768,
      "target": 34963
    },
    {
      "buffer": 0,
      "byteLength": 288,
      "byteOffset": 828,
      "target": 34962
    },
    {
      "buffer": 0,
      "byteLength": 288,
      "byteOffset": 1116,
      "target": 34962
    },
    {
      "buffer": 0,
      "byteLength": 192,
      "byteOffset": 1404,
      "target": 34962
    },
    {
      "buffer": 0,
      "byteLength": 288,
      "byteOffset": 1596,
      "target": 34962
    },
    {
      "buffer": 0,
      "byteLength": 288,
      "byteOffset": 1884,
      "target": 34962
    },
    {
      "buffer": 0,
      "byteLength": 192,
      "byteOffset": 2172,
      "target": 34962
    },
    {
      "buffer": 0,
      "byteLength": 288,
      "byteOffset": 2364,
      "target": 34962
    },
    {
      "buffer": 0,
      "byteLength": 288,
      "byteOffset": 2652,
      "target": 34962
    },
    {
      "buffer": 0,
      "byteLength": 192,
      "byteOffset": 2940,
      "target": 34962
    },
    {
      "buffer": 0,
      "byteLength": 288,
      "byteOffset": 3132,
      "target": 34962
    },
    {
      "buffer": 0,
      "byteLength": 288,
      "byteOffset": 3420,
      "target": 34962
    },
    {
      "buffer": 0,
      "byteLength": 192,
      "byteOffset": 3708,
      "target": 34962
    }
  ],
  "buffers": [
    {
      "byteLength": 3900,
      "uri": "grass_tuft.bin"
    }
  ]
}