{
  "asset": {
    "generator": "Khronos glTF Blender I/O v5.1.19",
    "version": "2.0"
  },
  "scene": 0,
  "scenes": [
    {
      "name": "Scene",
      "nodes": [
        0,
        1
      ]
    }
  ],
  "nodes": [
    {
      "mesh": 0,
      "name": "MossRock",
      "scale": [
        1.399999976158142,
        0.5,
        1
      ],
      "translation": [
        0,
        0.20000000298023224,
        0
      ]
    },
    {
      "mesh": 1,
      "name": "MossPatch",
      "scale": [
        1.2000000476837158,
        0.25,
        0.800000011920929
      ],
      "translation": [
        0,
        0.3499999940395355,
        -0.05000000074505806
      ]
    }
  ],
  "materials": [
    {
      "doubleSided": true,
      "name": "MossStone",
      "pbrMetallicRoughness": {
        "baseColorFactor": [
          0.42,
          0.55,
          0.3,
          1.0
        ],
        "metallicFactor": 0,
        "roughnessFactor": 0.5
      }
    },
    {
      "doubleSided": true,
      "name": "AdvPalmG",
      "pbrMetallicRoughness": {
        "baseColorFactor": [
          0.32,
          0.62,
          0.25,
          1.0
        ],
        "metallicFactor": 0,
        "roughnessFactor": 0.5
      }
    }
  ],
  "meshes": [
    {
      "name": "Sphere.023",
      "primitives": [
        {
          "attributes": {
            "POSITION": 0,
            "NORMAL": 1,
            "TEXCOORD_0": 2
          },
          "indices": 3,
          "material": 0
        }
      ]
    },
    {
      "name": "Sphere.024",
      "primitives": [
        {
          "attributes": {
            "POSITION": 4,
            "NORMAL": 5,
            "TEXCOORD_0": 6
          },
          "indices": 3,
          "material": 1
        }
      ]
    }
  ],
  "accessors": [
    {
      "bufferView": 0,
      "componentType": 5126,
      "count": 163,
      "max": [
        0.38997116684913635,
        0.4000000059604645,
        0.3999999761581421
      ],
      "min": [
        -0.38997113704681396,
        -0.4000000059604645,
        -0.4000000059604645
      ],
      "type": "VEC3"
    },
    {
      "bufferView": 1,
      "componentType": 5126,
      "count": 163,
      "type": "VEC3"
    },
    {
      "bufferView": 2,
      "componentType": 5126,
      "count": 163,
      "type": "VEC2"
    },
    {
      "bufferView": 3,
      "componentType": 5123,
      "count": 756,
      "type": "SCALAR"
    },
    {
      "bufferView": 4,
      "componentType": 5126,
      "count": 163,
      "max": [
        0.24373197555541992,
        0.25,
        0.2499999701976776
      ],
      "min": [
        -0.24373196065425873,
        -0.25,
        -0.25
      ],
      "type": "VEC3"
    },
    {
      "bufferView": 5,
      "componentType": 5126,
      "count": 163,
      "type": "VEC3"
    },
    {
      "bufferView": 6,
      "componentType": 5126,
      "count": 163,
      "type": "VEC2"
    }
  ],
  "bufferViews": [
    {
      "buffer": 0,
      "byteLength": 1956,
      "byteOffset": 0,
      "target": 34962
    },
    {
      "buffer": 0,
      "byteLength": 1956,
      "byteOffset": 1956,
      "target": 34962
    },
    {
      "buffer": 0,
      "byteLength": 1304,
      "byteOffset": 3912,
      "target": 34962
    },
    {
      "buffer": 0,
      "byteLength": 1512,
      "byteOffset": 5216,
      "target": 34963
    },
    {
      "buffer": 0,
      "byteLength": 1956,
      "byteOffset": 6728,
      "target": 34962
    },
    {
      "buffer": 0,
      "byteLength": 1956,
      "byteOffset": 8684,
      "target": 34962
    },
    {
      "buffer": 0,
      "byteLength": 1304,
      "byteOffset": 10640,
      "target": 34962
    }
  ],
  "buffers": [
    {
      "byteLength": 11944,
      "uri": "mossy_rock.bin"
    }
  ]
}