{
  "asset": {
    "generator": "Khronos glTF Blender I/O v5.1.19",
    "version": "2.0"
  },
  "scene": 0,
  "scenes": [
    {
      "name": "Scene",
      "nodes": [
        0,
        1
      ]
    }
  ],
  "nodes": [
    {
      "mesh": 0,
      "name": "MushSStalk",
      "translation": [
        0,
        0.18000000715255737,
        0
      ]
    },
    {
      "mesh": 1,
      "name": "MushSCap",
      "scale": [
        1,
        0.550000011920929,
        1
      ],
      "translation": [
        0,
        0.44999998807907104,
        0
      ]
    }
  ],
  "materials": [
    {
      "doubleSided": true,
      "name": "ForMushW",
      "pbrMetallicRoughness": {
        "baseColorFactor": [
          0.95,
          0.95,
          0.92,
          1.0
        ],
        "metallicFactor": 0,
        "roughnessFactor": 0.5
      }
    },
    {
      "doubleSided": true,
      "name": "ForMushR",
      "pbrMetallicRoughness": {
        "baseColorFactor": [
          0.8,
          0.2,
          0.2,
          1.0
        ],
        "metallicFactor": 0,
        "roughnessFactor": 0.5
      }
    }
  ],
  "meshes": [
    {
      "name": "Cylinder.007",
      "primitives": [
        {
          "attributes": {
            "POSITION": 0,
            "NORMAL": 1,
            "TEXCOORD_0": 2
          },
          "indices": 3,
          "material": 0
        }
      ]
    },
    {
      "name": "Sphere.013",
      "primitives": [
        {
          "attributes": {
            "POSITION": 4,
            "NORMAL": 5,
            "TEXCOORD_0": 6
          },
          "indices": 7,
          "material": 1
        }
      ]
    }
  ],
  "accessors": [
    {
      "bufferView": 0,
      "componentType": 5126,
      "count": 34,
      "max": [
        0.07000000029802322,
        0.18000000715255737,
        0.07000000029802322
      ],
      "min": [
        -0.07000000029802322,
        -0.18000000715255737,
        -0.07000000029802322
      ],
      "type": "VEC3"
    },
    {
      "bufferView": 1,
      "componentType": 5126,
      "count": 34,
      "type": "VEC3"
    },
    {
      "bufferView": 2,
      "componentType": 5126,
      "count": 34,
      "type": "VEC2"
    },
    {
      "bufferView": 3,
      "componentType": 5123,
      "count": 84,
      "type": "SCALAR"
    },
    {
      "bufferView": 4,
      "componentType": 5126,
      "count": 163,
      "max": [
        0.21448412537574768,
        0.2199999988079071,
        0.2199999988079071
      ],
      "min": [
        -0.21448414027690887,
        -0.2199999988079071,
        -0.2199999988079071
      ],
      "type": "VEC3"
    },
    {
      "bufferView": 5,
      "componentType": 5126,
      "count": 163,
      "type": "VEC3"
    },
    {
      "bufferView": 6,
      "componentType": 5126,
      "count": 163,
      "type": "VEC2"
    },
    {
      "bufferView": 7,
      "componentType": 5123,
      "count": 756,
      "type": "SCALAR"
    }
  ],
  "bufferViews": [
    {
      "buffer": 0,
      "byteLength": 408,
      "byteOffset": 0,
      "target": 34962
    },
    {
      "buffer": 0,
      "byteLength": 408,
      "byteOffset": 408,
      "target": 34962
    },
    {
      "buffer": 0,
      "byteLength": 272,
      "byteOffset": 816,
      "target": 34962
    },
    {
      "buffer": 0,
      "byteLength": 168,
      "byteOffset": 1088,
      "target": 34963
    },
    {
      "buffer": 0,
      "byteLength": 1956,
      "byteOffset": 1256,
      "target": 34962
    },
    {
      "buffer": 0,
      "byteLength": 1956,
      "byteOffset": 3212,
      "target": 34962
    },
    {
      "buffer": 0,
      "byteLength": 1304,
      "byteOffset": 5168,
      "target": 34962
    },
    {
      "buffer": 0,
      "byteLength": 1512,
      "byteOffset": 6472,
      "target": 34963
    }
  ],
  "buffers": [
    {
      "byteLength": 7984,
      "uri": "mushroom_small.bin"
    }
  ]
}