{
  "asset": {
    "generator": "Khronos glTF Blender I/O v5.1.19",
    "version": "2.0"
  },
  "scene": 0,
  "scenes": [
    {
      "name": "Scene",
      "nodes": [
        0,
        1,
        2,
        3,
        4
      ]
    }
  ],
  "nodes": [
    {
      "mesh": 0,
      "name": "MushStalk",
      "translation": [
        0,
        0.44999998807907104,
        0
      ]
    },
    {
      "mesh": 1,
      "name": "MushCap",
      "scale": [
        1,
        0.550000011920929,
        1
      ],
      "translation": [
        0,
        1,
        0
      ]
    },
    {
      "mesh": 2,
      "name": "MushDot1",
      "scale": [
        1,
        0.30000001192092896,
        1
      ],
      "translation": [
        0.20000000298023224,
        1.2000000476837158,
        -0.15000000596046448
      ]
    },
    {
      "mesh": 3,
      "name": "MushDot2",
      "scale": [
        1,
        0.30000001192092896,
        1
      ],
      "translation": [
        -0.25,
        1.1799999475479126,
        -0.05000000074505806
      ]
    },
    {
      "mesh": 4,
      "name": "MushDot3",
      "scale": [
        1,
        0.30000001192092896,
        1
      ],
      "translation": [
        0.05000000074505806,
        1.1799999475479126,
        0.25
      ]
    }
  ],
  "materials": [
    {
      "doubleSided": true,
      "name": "ForMushW",
      "pbrMetallicRoughness": {
        "baseColorFactor": [
          0.95,
          0.95,
          0.92,
          1.0
        ],
        "metallicFactor": 0,
        "roughnessFactor": 0.5
      }
    },
    {
      "doubleSided": true,
      "name": "ForMushR",
      "pbrMetallicRoughness": {
        "baseColorFactor": [
          0.8,
          0.2,
          0.2,
          1.0
        ],
        "metallicFactor": 0,
        "roughnessFactor": 0.5
      }
    }
  ],
  "meshes": [
    {
      "name": "Cylinder.006",
      "primitives": [
        {
          "attributes": {
            "POSITION": 0,
            "NORMAL": 1,
            "TEXCOORD_0": 2
          },
          "indices": 3,
          "material": 0
        }
      ]
    },
    {
      "name": "Sphere.009",
      "primitives": [
        {
          "attributes": {
            "POSITION": 4,
            "NORMAL": 5,
            "TEXCOORD_0": 6
          },
          "indices": 7,
          "material": 1
        }
      ]
    },
    {
      "name": "Sphere.010",
      "primitives": [
        {
          "attributes": {
            "POSITION": 8,
            "NORMAL": 9,
            "TEXCOORD_0": 10
          },
          "indices": 7,
          "material": 0
        }
      ]
    },
    {
      "name": "Sphere.011",
      "primitives": [
        {
          "attributes": {
            "POSITION": 11,
            "NORMAL": 12,
            "TEXCOORD_0": 13
          },
          "indices": 14,
          "material": 0
        }
      ]
    },
    {
      "name": "Sphere.012",
      "primitives": [
        {
          "attributes": {
            "POSITION": 15,
            "NORMAL": 16,
            "TEXCOORD_0": 17
          },
          "indices": 18,
          "material": 0
        }
      ]
    }
  ],
  "accessors": [
    {
      "bufferView": 0,
      "componentType": 5126,
      "count": 50,
      "max": [
        0.18000000715255737,
        0.44999998807907104,
        0.18000000715255737
      ],
      "min": [
        -0.18000000715255737,
        -0.44999998807907104,
        -0.18000000715255737
      ],
      "type": "VEC3"
    },
    {
      "bufferView": 1,
      "componentType": 5126,
      "count": 50,
      "type": "VEC3"
    },
    {
      "bufferView": 2,
      "componentType": 5126,
      "count": 50,
      "type": "VEC2"
    },
    {
      "bufferView": 3,
      "componentType": 5123,
      "count": 132,
      "type": "SCALAR"
    },
    {
      "bufferView": 4,
      "componentType": 5126,
      "count": 163,
      "max": [
        0.5362103581428528,
        0.550000011920929,
        0.5499999523162842
      ],
      "min": [
        -0.536210298538208,
        -0.550000011920929,
        -0.550000011920929
      ],
      "type": "VEC3"
    },
    {
      "bufferView": 5,
      "componentType": 5126,
      "count": 163,
      "type": "VEC3"
    },
    {
      "bufferView": 6,
      "componentType": 5126,
      "count": 163,
      "type": "VEC2"
    },
    {
      "bufferView": 7,
      "componentType": 5123,
      "count": 756,
      "type": "SCALAR"
    },
    {
      "bufferView": 8,
      "componentType": 5126,
      "count": 163,
      "max": [
        0.06824494898319244,
        0.07000000029802322,
        0.06999998539686203
      ],
      "min": [
        -0.06824493408203125,
        -0.07000000029802322,
        -0.07000000029802322
      ],
      "type": "VEC3"
    },
    {
      "bufferView": 9,
      "componentType": 5126,
      "count": 163,
      "type": "VEC3"
    },
    {
      "bufferView": 10,
      "componentType": 5126,
      "count": 163,
      "type": "VEC2"
    },
    {
      "bufferView": 11,
      "componentType": 5126,
      "count": 163,
      "max": [
        0.07799422740936279,
        0.07999999821186066,
        0.07999998331069946
      ],
      "min": [
        -0.0779942199587822,
        -0.07999999821186066,
        -0.07999999821186066
      ],
      "type": "VEC3"
    },
    {
      "bufferView": 12,
      "componentType": 5126,
      "count": 163,
      "type": "VEC3"
    },
    {
      "bufferView": 13,
      "componentType": 5126,
      "count": 163,
      "type": "VEC2"
    },
    {
      "bufferView": 14,
      "componentType": 5123,
      "count": 756,
      "type": "SCALAR"
    },
    {
      "bufferView": 15,
      "componentType": 5126,
      "count": 163,
      "max": [
        0.05849567428231239,
        0.05999999865889549,
        0.059999994933605194
      ],
      "min": [
        -0.058495670557022095,
        -0.05999999865889549,
        -0.05999999865889549
      ],
      "type": "VEC3"
    },
    {
      "bufferView": 16,
      "componentType": 5126,
      "count": 163,
      "type": "VEC3"
    },
    {
      "bufferView": 17,
      "componentType": 5126,
      "count": 163,
      "type": "VEC2"
    },
    {
      "bufferView": 18,
      "componentType": 5123,
      "count": 756,
      "type": "SCALAR"
    }
  ],
  "bufferViews": [
    {
      "buffer": 0,
      "byteLength": 600,
      "byteOffset": 0,
      "target": 34962
    },
    {
      "buffer": 0,
      "byteLength": 600,
      "byteOffset": 600,
      "target": 34962
    },
    {
      "buffer": 0,
      "byteLength": 400,
      "byteOffset": 1200,
      "target": 34962
    },
    {
      "buffer": 0,
      "byteLength": 264,
      "byteOffset": 1600,
      "target": 34963
    },
    {
      "buffer": 0,
      "byteLength": 1956,
      "byteOffset": 1864,
      "target": 34962
    },
    {
      "buffer": 0,
      "byteLength": 1956,
      "byteOffset": 3820,
      "target": 34962
    },
    {
      "buffer": 0,
      "byteLength": 1304,
      "byteOffset": 5776,
      "target": 34962
    },
    {
      "buffer": 0,
      "byteLength": 1512,
      "byteOffset": 7080,
      "target": 34963
    },
    {
      "buffer": 0,
      "byteLength": 1956,
      "byteOffset": 8592,
      "target": 34962
    },
    {
      "buffer": 0,
      "byteLength": 1956,
      "byteOffset": 10548,
      "target": 34962
    },
    {
      "buffer": 0,
      "byteLength": 1304,
      "byteOffset": 12504,
      "target": 34962
    },
    {
      "buffer": 0,
      "byteLength": 1956,
      "byteOffset": 13808,
      "target": 34962
    },
    {
      "buffer": 0,
      "byteLength": 1956,
      "byteOffset": 15764,
      "target": 34962
    },
    {
      "buffer": 0,
      "byteLength": 1304,
      "byteOffset": 17720,
      "target": 34962
    },
    {
      "buffer": 0,
      "byteLength": 1512,
      "byteOffset": 19024,
      "target": 34963
    },
    {
      "buffer": 0,
      "byteLength": 1956,
      "byteOffset": 20536,
      "target": 34962
    },
    {
      "buffer": 0,
      "byteLength": 1956,
      "byteOffset": 22492,
      "target": 34962
    },
    {
      "buffer": 0,
      "byteLength": 1304,
      "byteOffset": 24448,
      "target": 34962
    },
    {
      "buffer": 0,
      "byteLength": 1512,
      "byteOffset": 25752,
      "target": 34963
    }
  ],
  "buffers": [
    {
      "byteLength": 27264,
      "uri": "mushroom_large.bin"
    }
  ]
}