{
  "asset": {
    "generator": "Khronos glTF Blender I/O v5.1.19",
    "version": "2.0"
  },
  "scene": 0,
  "scenes": [
    {
      "name": "Scene",
      "nodes": [
        7
      ]
    }
  ],
  "nodes": [
    {
      "mesh": 0,
      "name": "PalmCoco",
      "translation": [
        0.10000000149011612,
        2.55,
        0
      ]
    },
    {
      "mesh": 1,
      "name": "PalmLeaf_0",
      "rotation": [
        0,
        0,
        0.2164396047592163,
        0.9762960076332092
      ],
      "scale": [
        0.6,
        0.6,
        0.6
      ],
      "translation": [
        0.13499999642372132,
        2.5,
        0.0
      ]
    },
    {
      "mesh": 2,
      "name": "PalmLeaf_1",
      "rotation": [
        0.10821981728076935,
        0.4881480634212494,
        0.18744221329689026,
        0.8454971313476562
      ],
      "scale": [
        0.6,
        0.6,
        0.6
      ],
      "translation": [
        0.06749999821186066,
        2.5,
        -0.1169134497642517
      ]
    },
    {
      "mesh": 3,
      "name": "PalmLeaf_2",
      "rotation": [
        0.18744222819805145,
        0.8454971313476562,
        0.10821981728076935,
        0.4881480038166046
      ],
      "scale": [
        0.6,
        0.6,
        0.6
      ],
      "translation": [
        -0.06749999821186066,
        2.5,
        -0.1169134497642517
      ]
    },
    {
      "mesh": 4,
      "name": "PalmLeaf_3",
      "rotation": [
        -0.2164396047592163,
        -0.9762960076332092,
        0,
        4.2827792867683456e-08
      ],
      "scale": [
        0.6,
        0.6,
        0.6
      ],
      "translation": [
        -0.13499999642372132,
        2.5,
        0.0
      ]
    },
    {
      "mesh": 5,
      "name": "PalmLeaf_4",
      "rotation": [
        -0.18744221329689026,
        -0.8454971313476562,
        0.10821983218193054,
        0.4881480634212494
      ],
      "scale": [
        0.6,
        0.6,
        0.6
      ],
      "translation": [
        -0.06749999821186066,
        2.5,
        0.11691341400146484
      ]
    },
    {
      "mesh": 6,
      "name": "PalmLeaf_5",
      "rotation": [
        -0.10821983218193054,
        -0.4881480634212494,
        0.18744221329689026,
        0.8454971313476562
      ],
      "scale": [
        0.6,
        0.6,
        0.6
      ],
      "translation": [
        0.06749999821186066,
        2.5,
        0.11691341400146484
      ]
    },
    {
      "children": [
        0,
        1,
        2,
        3,
        4,
        5,
        6
      ],
      "mesh": 7,
      "name": "PalmTrunk",
      "rotation": [
        0.06975648552179337,
        0,
        0,
        0.9975640773773193
      ],
      "translation": [
        0,
        1.2,
        0
      ],
      "scale": [
        1.0,
        1.0,
        1.0
      ]
    }
  ],
  "materials": [
    {
      "doubleSided": true,
      "name": "PropWoodDark",
      "pbrMetallicRoughness": {
        "baseColorFactor": [
          0.4,
          0.28,
          0.16,
          1.0
        ],
        "metallicFactor": 0,
        "roughnessFactor": 0.5
      }
    },
    {
      "doubleSided": true,
      "name": "PropLeaf",
      "pbrMetallicRoughness": {
        "baseColorFactor": [
          0.32,
          0.62,
          0.25,
          1.0
        ],
        "metallicFactor": 0,
        "roughnessFactor": 0.5
      }
    },
    {
      "doubleSided": true,
      "name": "PropTrunk",
      "pbrMetallicRoughness": {
        "baseColorFactor": [
          0.45,
          0.3,
          0.2,
          1.0
        ],
        "metallicFactor": 0,
        "roughnessFactor": 0.5
      }
    }
  ],
  "meshes": [
    {
      "name": "Sphere.007",
      "primitives": [
        {
          "attributes": {
            "POSITION": 0,
            "NORMAL": 1,
            "TEXCOORD_0": 2
          },
          "indices": 3,
          "material": 0
        }
      ]
    },
    {
      "name": "Sphere.001",
      "primitives": [
        {
          "attributes": {
            "POSITION": 4,
            "NORMAL": 5,
            "TEXCOORD_0": 6
          },
          "indices": 7,
          "material": 1
        }
      ]
    },
    {
      "name": "Sphere.002",
      "primitives": [
        {
          "attributes": {
            "POSITION": 8,
            "NORMAL": 9,
            "TEXCOORD_0": 10
          },
          "indices": 7,
          "material": 1
        }
      ]
    },
    {
      "name": "Sphere.003",
      "primitives": [
        {
          "attributes": {
            "POSITION": 11,
            "NORMAL": 12,
            "TEXCOORD_0": 13
          },
          "indices": 7,
          "material": 1
        }
      ]
    },
    {
      "name": "Sphere.004",
      "primitives": [
        {
          "attributes": {
            "POSITION": 14,
            "NORMAL": 15,
            "TEXCOORD_0": 16
          },
          "indices": 7,
          "material": 1
        }
      ]
    },
    {
      "name": "Sphere.005",
      "primitives": [
        {
          "attributes": {
            "POSITION": 17,
            "NORMAL": 18,
            "TEXCOORD_0": 19
          },
          "indices": 7,
          "material": 1
        }
      ]
    },
    {
      "name": "Sphere.006",
      "primitives": [
        {
          "attributes": {
            "POSITION": 20,
            "NORMAL": 21,
            "TEXCOORD_0": 22
          },
          "indices": 7,
          "material": 1
        }
      ]
    },
    {
      "name": "Cylinder",
      "primitives": [
        {
          "attributes": {
            "POSITION": 23,
            "NORMAL": 24,
            "TEXCOORD_0": 25
          },
          "indices": 26,
          "material": 2
        }
      ]
    }
  ],
  "accessors": [
    {
      "bufferView": 0,
      "componentType": 5126,
      "count": 115,
      "max": [
        0.09999999403953552,
        0.10000000149011612,
        0.09999999403953552
      ],
      "min": [
        -0.09999998658895493,
        -0.10000000149011612,
        -0.09999997913837433
      ],
      "type": "VEC3"
    },
    {
      "bufferView": 1,
      "componentType": 5126,
      "count": 115,
      "type": "VEC3"
    },
    {
      "bufferView": 2,
      "componentType": 5126,
      "count": 115,
      "type": "VEC2"
    },
    {
      "bufferView": 3,
      "componentType": 5123,
      "count": 504,
      "type": "SCALAR"
    },
    {
      "bufferView": 4,
      "componentType": 5126,
      "count": 89,
      "max": [
        0.5499999523162842,
        0.550000011920929,
        0.5499999523162842
      ],
      "min": [
        -0.5499999523162842,
        -0.550000011920929,
        -0.5499999523162842
      ],
      "type": "VEC3"
    },
    {
      "bufferView": 5,
      "componentType": 5126,
      "count": 89,
      "type": "VEC3"
    },
    {
      "bufferView": 6,
      "componentType": 5126,
      "count": 89,
      "type": "VEC2"
    },
    {
      "bufferView": 7,
      "componentType": 5123,
      "count": 360,
      "type": "SCALAR"
    },
    {
      "bufferView": 8,
      "componentType": 5126,
      "count": 89,
      "max": [
        0.5499999523162842,
        0.550000011920929,
        0.5499999523162842
      ],
      "min": [
        -0.5499999523162842,
        -0.550000011920929,
        -0.5499999523162842
      ],
      "type": "VEC3"
    },
    {
      "bufferView": 9,
      "componentType": 5126,
      "count": 89,
      "type": "VEC3"
    },
    {
      "bufferView": 10,
      "componentType": 5126,
      "count": 89,
      "type": "VEC2"
    },
    {
      "bufferView": 11,
      "componentType": 5126,
      "count": 89,
      "max": [
        0.5499999523162842,
        0.550000011920929,
        0.5499999523162842
      ],
      "min": [
        -0.5499999523162842,
        -0.550000011920929,
        -0.5499999523162842
      ],
      "type": "VEC3"
    },
    {
      "bufferView": 12,
      "componentType": 5126,
      "count": 89,
      "type": "VEC3"
    },
    {
      "bufferView": 13,
      "componentType": 5126,
      "count": 89,
      "type": "VEC2"
    },
    {
      "bufferView": 14,
      "componentType": 5126,
      "count": 89,
      "max": [
        0.5499999523162842,
        0.550000011920929,
        0.5499999523162842
      ],
      "min": [
        -0.5499999523162842,
        -0.550000011920929,
        -0.5499999523162842
      ],
      "type": "VEC3"
    },
    {
      "bufferView": 15,
      "componentType": 5126,
      "count": 89,
      "type": "VEC3"
    },
    {
      "bufferView": 16,
      "componentType": 5126,
      "count": 89,
      "type": "VEC2"
    },
    {
      "bufferView": 17,
      "componentType": 5126,
      "count": 89,
      "max": [
        0.5499999523162842,
        0.550000011920929,
        0.5499999523162842
      ],
      "min": [
        -0.5499999523162842,
        -0.550000011920929,
        -0.5499999523162842
      ],
      "type": "VEC3"
    },
    {
      "bufferView": 18,
      "componentType": 5126,
      "count": 89,
      "type": "VEC3"
    },
    {
      "bufferView": 19,
      "componentType": 5126,
      "count": 89,
      "type": "VEC2"
    },
    {
      "bufferView": 20,
      "componentType": 5126,
      "count": 89,
      "max": [
        0.5499999523162842,
        0.550000011920929,
        0.5499999523162842
      ],
      "min": [
        -0.5499999523162842,
        -0.550000011920929,
        -0.5499999523162842
      ],
      "type": "VEC3"
    },
    {
      "bufferView": 21,
      "componentType": 5126,
      "count": 89,
      "type": "VEC3"
    },
    {
      "bufferView": 22,
      "componentType": 5126,
      "count": 89,
      "type": "VEC2"
    },
    {
      "bufferView": 23,
      "componentType": 5126,
      "count": 50,
      "max": [
        0.11999999731779099,
        1.2000000476837158,
        0.11999999731779099
      ],
      "min": [
        -0.11999999731779099,
        -1.2000000476837158,
        -0.11999999731779099
      ],
      "type": "VEC3"
    },
    {
      "bufferView": 24,
      "componentType": 5126,
      "count": 50,
      "type": "VEC3"
    },
    {
      "bufferView": 25,
      "componentType": 5126,
      "count": 50,
      "type": "VEC2"
    },
    {
      "bufferView": 26,
      "componentType": 5123,
      "count": 132,
      "type": "SCALAR"
    }
  ],
  "bufferViews": [
    {
      "buffer": 0,
      "byteLength": 1380,
      "byteOffset": 0,
      "target": 34962
    },
    {
      "buffer": 0,
      "byteLength": 1380,
      "byteOffset": 1380,
      "target": 34962
    },
    {
      "buffer": 0,
      "byteLength": 920,
      "byteOffset": 2760,
      "target": 34962
    },
    {
      "buffer": 0,
      "byteLength": 1008,
      "byteOffset": 3680,
      "target": 34963
    },
    {
      "buffer": 0,
      "byteLength": 1068,
      "byteOffset": 4688,
      "target": 34962
    },
    {
      "buffer": 0,
      "byteLength": 1068,
      "byteOffset": 5756,
      "target": 34962
    },
    {
      "buffer": 0,
      "byteLength": 712,
      "byteOffset": 6824,
      "target": 34962
    },
    {
      "buffer": 0,
      "byteLength": 720,
      "byteOffset": 7536,
      "target": 34963
    },
    {
      "buffer": 0,
      "byteLength": 1068,
      "byteOffset": 8256,
      "target": 34962
    },
    {
      "buffer": 0,
      "byteLength": 1068,
      "byteOffset": 9324,
      "target": 34962
    },
    {
      "buffer": 0,
      "byteLength": 712,
      "byteOffset": 10392,
      "target": 34962
    },
    {
      "buffer": 0,
      "byteLength": 1068,
      "byteOffset": 11104,
      "target": 34962
    },
    {
      "buffer": 0,
      "byteLength": 1068,
      "byteOffset": 12172,
      "target": 34962
    },
    {
      "buffer": 0,
      "byteLength": 712,
      "byteOffset": 13240,
      "target": 34962
    },
    {
      "buffer": 0,
      "byteLength": 1068,
      "byteOffset": 13952,
      "target": 34962
    },
    {
      "buffer": 0,
      "byteLength": 1068,
      "byteOffset": 15020,
      "target": 34962
    },
    {
      "buffer": 0,
      "byteLength": 712,
      "byteOffset": 16088,
      "target": 34962
    },
    {
      "buffer": 0,
      "byteLength": 1068,
      "byteOffset": 16800,
      "target": 34962
    },
    {
      "buffer": 0,
      "byteLength": 1068,
      "byteOffset": 17868,
      "target": 34962
    },
    {
      "buffer": 0,
      "byteLength": 712,
      "byteOffset": 18936,
      "target": 34962
    },
    {
      "buffer": 0,
      "byteLength": 1068,
      "byteOffset": 19648,
      "target": 34962
    },
    {
      "buffer": 0,
      "byteLength": 1068,
      "byteOffset": 20716,
      "target": 34962
    },
    {
      "buffer": 0,
      "byteLength": 712,
      "byteOffset": 21784,
      "target": 34962
    },
    {
      "buffer": 0,
      "byteLength": 600,
      "byteOffset": 22496,
      "target": 34962
    },
    {
      "buffer": 0,
      "byteLength": 600,
      "byteOffset": 23096,
      "target": 34962
    },
    {
      "buffer": 0,
      "byteLength": 400,
      "byteOffset": 23696,
      "target": 34962
    },
    {
      "buffer": 0,
      "byteLength": 264,
      "byteOffset": 24096,
      "target": 34963
    }
  ],
  "buffers": [
    {
      "byteLength": 24360,
      "uri": "palm.bin"
    }
  ]
}