{
  "asset": {
    "generator": "Khronos glTF Blender I/O v5.1.19",
    "version": "2.0"
  },
  "scene": 0,
  "scenes": [
    {
      "name": "Scene",
      "nodes": [
        0
      ]
    }
  ],
  "nodes": [
    {
      "mesh": 0,
      "name": "Pearl",
      "translation": [
        0,
        0.10000000149011612,
        0
      ]
    }
  ],
  "materials": [
    {
      "doubleSided": true,
      "name": "PearlW",
      "pbrMetallicRoughness": {
        "baseColorFactor": [
          0.94,
          0.94,
          0.98,
          1.0
        ],
        "metallicFactor": 0.3,
        "roughnessFactor": 0.15
      }
    }
  ],
  "meshes": [
    {
      "name": "Sphere.025",
      "primitives": [
        {
          "attributes": {
            "POSITION": 0,
            "NORMAL": 1,
            "TEXCOORD_0": 2
          },
          "indices": 3,
          "material": 0
        }
      ]
    }
  ],
  "accessors": [
    {
      "bufferView": 0,
      "componentType": 5126,
      "count": 163,
      "max": [
        0.09749279171228409,
        0.10000000149011612,
        0.09999999403953552
      ],
      "min": [
        -0.09749278426170349,
        -0.10000000149011612,
        -0.10000000149011612
      ],
      "type": "VEC3"
    },
    {
      "bufferView": 1,
      "componentType": 5126,
      "count": 163,
      "type": "VEC3"
    },
    {
      "bufferView": 2,
      "componentType": 5126,
      "count": 163,
      "type": "VEC2"
    },
    {
      "bufferView": 3,
      "componentType": 5123,
      "count": 756,
      "type": "SCALAR"
    }
  ],
  "bufferViews": [
    {
      "buffer": 0,
      "byteLength": 1956,
      "byteOffset": 0,
      "target": 34962
    },
    {
      "buffer": 0,
      "byteLength": 1956,
      "byteOffset": 1956,
      "target": 34962
    },
    {
      "buffer": 0,
      "byteLength": 1304,
      "byteOffset": 3912,
      "target": 34962
    },
    {
      "buffer": 0,
      "byteLength": 1512,
      "byteOffset": 5216,
      "target": 34963
    }
  ],
  "buffers": [
    {
      "byteLength": 6728,
      "uri": "pearl.bin"
    }
  ]
}