{
	"asset":{
		"generator":"Khronos glTF Blender I/O v5.1.19",
		"version":"2.0"
	},
	"scene":0,
	"scenes":[
		{
			"name":"Scene",
			"nodes":[
				1
			]
		}
	],
	"nodes":[
		{
			"mesh":0,
			"name":"RockMoss",
			"scale":[
				1,
				0.2499999850988388,
				1
			],
			"translation":[
				0.04999999701976776,
				0.7799999713897705,
				0.10000000149011612
			]
		},
		{
			"children":[
				0
			],
			"mesh":1,
			"name":"Rock",
			"scale":[
				1.2000000476837158,
				0.8500000238418579,
				1
			],
			"translation":[
				0,
				0.5,
				0
			]
		}
	],
	"materials":[
		{
			"doubleSided":true,
			"name":"PropMoss",
			"pbrMetallicRoughness":{
				"baseColorFactor":[
					0.800000011920929,
					0.800000011920929,
					0.800000011920929,
					1
				],
				"metallicFactor":0,
				"roughnessFactor":0.5
			}
		},
		{
			"doubleSided":true,
			"name":"PropStone",
			"pbrMetallicRoughness":{
				"baseColorFactor":[
					0.800000011920929,
					0.800000011920929,
					0.800000011920929,
					1
				],
				"metallicFactor":0,
				"roughnessFactor":0.5
			}
		}
	],
	"meshes":[
		{
			"name":"Sphere",
			"primitives":[
				{
					"attributes":{
						"POSITION":0,
						"NORMAL":1,
						"TEXCOORD_0":2
					},
					"indices":3,
					"material":0
				}
			]
		},
		{
			"name":"Icosphere",
			"primitives":[
				{
					"attributes":{
						"POSITION":4,
						"NORMAL":5,
						"TEXCOORD_0":6
					},
					"indices":7,
					"material":1
				}
			]
		}
	],
	"accessors":[
		{
			"bufferView":0,
			"componentType":5126,
			"count":115,
			"max":[
				0.34999996423721313,
				0.3499999940395355,
				0.34999996423721313
			],
			"min":[
				-0.34999996423721313,
				-0.3499999940395355,
				-0.3499999940395355
			],
			"type":"VEC3"
		},
		{
			"bufferView":1,
			"componentType":5126,
			"count":115,
			"type":"VEC3"
		},
		{
			"bufferView":2,
			"componentType":5126,
			"count":115,
			"type":"VEC2"
		},
		{
			"bufferView":3,
			"componentType":5123,
			"count":504,
			"type":"SCALAR"
		},
		{
			"bufferView":4,
			"componentType":5126,
			"count":63,
			"max":[
				0.47552892565727234,
				0.5,
				0.4999999701976776
			],
			"min":[
				-0.47552892565727234,
				-0.5,
				-0.4999999701976776
			],
			"type":"VEC3"
		},
		{
			"bufferView":5,
			"componentType":5126,
			"count":63,
			"type":"VEC3"
		},
		{
			"bufferView":6,
			"componentType":5126,
			"count":63,
			"type":"VEC2"
		},
		{
			"bufferView":7,
			"componentType":5123,
			"count":240,
			"type":"SCALAR"
		}
	],
	"bufferViews":[
		{
			"buffer":0,
			"byteLength":1380,
			"byteOffset":0,
			"target":34962
		},
		{
			"buffer":0,
			"byteLength":1380,
			"byteOffset":1380,
			"target":34962
		},
		{
			"buffer":0,
			"byteLength":920,
			"byteOffset":2760,
			"target":34962
		},
		{
			"buffer":0,
			"byteLength":1008,
			"byteOffset":3680,
			"target":34963
		},
		{
			"buffer":0,
			"byteLength":756,
			"byteOffset":4688,
			"target":34962
		},
		{
			"buffer":0,
			"byteLength":756,
			"byteOffset":5444,
			"target":34962
		},
		{
			"buffer":0,
			"byteLength":504,
			"byteOffset":6200,
			"target":34962
		},
		{
			"buffer":0,
			"byteLength":480,
			"byteOffset":6704,
			"target":34963
		}
	],
	"buffers":[
		{
			"byteLength":7184,
			"uri":"rock.bin"
		}
	]
}
