{
  "asset": {
    "generator": "Khronos glTF Blender I/O v5.1.19",
    "version": "2.0"
  },
  "scene": 0,
  "scenes": [
    {
      "name": "Scene",
      "nodes": [
        0,
        1
      ]
    }
  ],
  "nodes": [
    {
      "mesh": 0,
      "name": "CrystalTop",
      "translation": [
        0,
        0.4300000071525574,
        0
      ]
    },
    {
      "mesh": 1,
      "name": "CrystalBottom",
      "rotation": [
        -1,
        0,
        0,
        4.371138828673793e-08
      ],
      "translation": [
        0,
        0.10000000149011612,
        0
      ]
    }
  ],
  "materials": [
    {
      "doubleSided": true,
      "name": "PropCrystal",
      "pbrMetallicRoughness": {
        "baseColorFactor": [
          0.4,
          0.85,
          0.95,
          1.0
        ],
        "metallicFactor": 0,
        "roughnessFactor": 0.5
      },
      "emissiveFactor": [
        0.1,
        0.3,
        0.4
      ]
    }
  ],
  "meshes": [
    {
      "name": "Cone.005",
      "primitives": [
        {
          "attributes": {
            "POSITION": 0,
            "NORMAL": 1,
            "TEXCOORD_0": 2
          },
          "indices": 3,
          "material": 0
        }
      ]
    },
    {
      "name": "Cone.006",
      "primitives": [
        {
          "attributes": {
            "POSITION": 4,
            "NORMAL": 5,
            "TEXCOORD_0": 6
          },
          "indices": 3,
          "material": 0
        }
      ]
    }
  ],
  "accessors": [
    {
      "bufferView": 0,
      "componentType": 5126,
      "count": 24,
      "max": [
        0.15588457882404327,
        0.22499999403953552,
        0.18000000715255737
      ],
      "min": [
        -0.15588457882404327,
        -0.22499999403953552,
        -0.18000000715255737
      ],
      "type": "VEC3"
    },
    {
      "bufferView": 1,
      "componentType": 5126,
      "count": 24,
      "type": "VEC3"
    },
    {
      "bufferView": 2,
      "componentType": 5126,
      "count": 24,
      "type": "VEC2"
    },
    {
      "bufferView": 3,
      "componentType": 5123,
      "count": 30,
      "type": "SCALAR"
    },
    {
      "bufferView": 4,
      "componentType": 5126,
      "count": 24,
      "max": [
        0.15588457882404327,
        0.10000000149011612,
        0.18000000715255737
      ],
      "min": [
        -0.15588457882404327,
        -0.10000000149011612,
        -0.18000000715255737
      ],
      "type": "VEC3"
    },
    {
      "bufferView": 5,
      "componentType": 5126,
      "count": 24,
      "type": "VEC3"
    },
    {
      "bufferView": 6,
      "componentType": 5126,
      "count": 24,
      "type": "VEC2"
    }
  ],
  "bufferViews": [
    {
      "buffer": 0,
      "byteLength": 288,
      "byteOffset": 0,
      "target": 34962
    },
    {
      "buffer": 0,
      "byteLength": 288,
      "byteOffset": 288,
      "target": 34962
    },
    {
      "buffer": 0,
      "byteLength": 192,
      "byteOffset": 576,
      "target": 34962
    },
    {
      "buffer": 0,
      "byteLength": 60,
      "byteOffset": 768,
      "target": 34963
    },
    {
      "buffer": 0,
      "byteLength": 288,
      "byteOffset": 828,
      "target": 34962
    },
    {
      "buffer": 0,
      "byteLength": 288,
      "byteOffset": 1116,
      "target": 34962
    },
    {
      "buffer": 0,
      "byteLength": 192,
      "byteOffset": 1404,
      "target": 34962
    }
  ],
  "buffers": [
    {
      "byteLength": 1596,
      "uri": "spawn_crystal.bin"
    }
  ]
}