{
  "asset": {
    "generator": "Khronos glTF Blender I/O v5.1.19",
    "version": "2.0"
  },
  "scene": 0,
  "scenes": [
    {
      "name": "Scene",
      "nodes": [
        0,
        1,
        2,
        3,
        4
      ]
    }
  ],
  "nodes": [
    {
      "mesh": 0,
      "name": "StarArm0",
      "rotation": [
        0.5,
        0.5,
        -0.5,
        0.5
      ],
      "translation": [
        0.11999999731779099,
        0.10000000149011612,
        0
      ]
    },
    {
      "mesh": 1,
      "name": "StarArm1",
      "rotation": [
        0.11061589419841766,
        0.6984010934829712,
        -0.698401153087616,
        0.11061589419841766
      ],
      "translation": [
        0.037082038819789886,
        0.10000000149011612,
        -0.1141267791390419
      ]
    },
    {
      "mesh": 2,
      "name": "StarArm2",
      "rotation": [
        0.32101985812187195,
        -0.6300367116928101,
        0.6300367116928101,
        0.32101982831954956
      ],
      "translation": [
        -0.09708204120397568,
        0.10000000149011612,
        -0.07053422927856445
      ]
    },
    {
      "mesh": 3,
      "name": "StarArm3",
      "rotation": [
        0.6300367116928101,
        -0.32101982831954956,
        0.32101985812187195,
        0.6300367116928101
      ],
      "translation": [
        -0.09708204120397568,
        0.10000000149011612,
        0.07053422927856445
      ]
    },
    {
      "mesh": 4,
      "name": "StarArm4",
      "rotation": [
        0.698401153087616,
        0.1106158047914505,
        -0.1106158047914505,
        0.6984010934829712
      ],
      "translation": [
        0.037082038819789886,
        0.10000000149011612,
        0.1141267791390419
      ]
    }
  ],
  "materials": [
    {
      "doubleSided": true,
      "name": "StarOrange",
      "pbrMetallicRoughness": {
        "baseColorFactor": [
          0.95,
          0.55,
          0.3,
          1.0
        ],
        "metallicFactor": 0,
        "roughnessFactor": 0.5
      }
    }
  ],
  "meshes": [
    {
      "name": "Cone.002",
      "primitives": [
        {
          "attributes": {
            "POSITION": 0,
            "NORMAL": 1,
            "TEXCOORD_0": 2
          },
          "indices": 3,
          "material": 0
        }
      ]
    },
    {
      "name": "Cone.003",
      "primitives": [
        {
          "attributes": {
            "POSITION": 4,
            "NORMAL": 5,
            "TEXCOORD_0": 6
          },
          "indices": 3,
          "material": 0
        }
      ]
    },
    {
      "name": "Cone.004",
      "primitives": [
        {
          "attributes": {
            "POSITION": 7,
            "NORMAL": 8,
            "TEXCOORD_0": 9
          },
          "indices": 3,
          "material": 0
        }
      ]
    },
    {
      "name": "Cone.005",
      "primitives": [
        {
          "attributes": {
            "POSITION": 10,
            "NORMAL": 11,
            "TEXCOORD_0": 12
          },
          "indices": 3,
          "material": 0
        }
      ]
    },
    {
      "name": "Cone.006",
      "primitives": [
        {
          "attributes": {
            "POSITION": 13,
            "NORMAL": 14,
            "TEXCOORD_0": 15
          },
          "indices": 3,
          "material": 0
        }
      ]
    }
  ],
  "accessors": [
    {
      "bufferView": 0,
      "componentType": 5126,
      "count": 18,
      "max": [
        0.07999999821186066,
        0.10000000149011612,
        0.07999999821186066
      ],
      "min": [
        -0.07999999821186066,
        -0.10000000149011612,
        -0.07999999821186066
      ],
      "type": "VEC3"
    },
    {
      "bufferView": 1,
      "componentType": 5126,
      "count": 18,
      "type": "VEC3"
    },
    {
      "bufferView": 2,
      "componentType": 5126,
      "count": 18,
      "type": "VEC2"
    },
    {
      "bufferView": 3,
      "componentType": 5123,
      "count": 36,
      "type": "SCALAR"
    },
    {
      "bufferView": 4,
      "componentType": 5126,
      "count": 18,
      "max": [
        0.07999999821186066,
        0.10000000149011612,
        0.07999999821186066
      ],
      "min": [
        -0.07999999821186066,
        -0.10000000149011612,
        -0.07999999821186066
      ],
      "type": "VEC3"
    },
    {
      "bufferView": 5,
      "componentType": 5126,
      "count": 18,
      "type": "VEC3"
    },
    {
      "bufferView": 6,
      "componentType": 5126,
      "count": 18,
      "type": "VEC2"
    },
    {
      "bufferView": 7,
      "componentType": 5126,
      "count": 18,
      "max": [
        0.07999999821186066,
        0.10000000149011612,
        0.07999999821186066
      ],
      "min": [
        -0.07999999821186066,
        -0.10000000149011612,
        -0.07999999821186066
      ],
      "type": "VEC3"
    },
    {
      "bufferView": 8,
      "componentType": 5126,
      "count": 18,
      "type": "VEC3"
    },
    {
      "bufferView": 9,
      "componentType": 5126,
      "count": 18,
      "type": "VEC2"
    },
    {
      "bufferView": 10,
      "componentType": 5126,
      "count": 18,
      "max": [
        0.07999999821186066,
        0.10000000149011612,
        0.07999999821186066
      ],
      "min": [
        -0.07999999821186066,
        -0.10000000149011612,
        -0.07999999821186066
      ],
      "type": "VEC3"
    },
    {
      "bufferView": 11,
      "componentType": 5126,
      "count": 18,
      "type": "VEC3"
    },
    {
      "bufferView": 12,
      "componentType": 5126,
      "count": 18,
      "type": "VEC2"
    },
    {
      "bufferView": 13,
      "componentType": 5126,
      "count": 18,
      "max": [
        0.07999999821186066,
        0.10000000149011612,
        0.07999999821186066
      ],
      "min": [
        -0.07999999821186066,
        -0.10000000149011612,
        -0.07999999821186066
      ],
      "type": "VEC3"
    },
    {
      "bufferView": 14,
      "componentType": 5126,
      "count": 18,
      "type": "VEC3"
    },
    {
      "bufferView": 15,
      "componentType": 5126,
      "count": 18,
      "type": "VEC2"
    }
  ],
  "bufferViews": [
    {
      "buffer": 0,
      "byteLength": 216,
      "byteOffset": 0,
      "target": 34962
    },
    {
      "buffer": 0,
      "byteLength": 216,
      "byteOffset": 216,
      "target": 34962
    },
    {
      "buffer": 0,
      "byteLength": 144,
      "byteOffset": 432,
      "target": 34962
    },
    {
      "buffer": 0,
      "byteLength": 72,
      "byteOffset": 576,
      "target": 34963
    },
    {
      "buffer": 0,
      "byteLength": 216,
      "byteOffset": 648,
      "target": 34962
    },
    {
      "buffer": 0,
      "byteLength": 216,
      "byteOffset": 864,
      "target": 34962
    },
    {
      "buffer": 0,
      "byteLength": 144,
      "byteOffset": 1080,
      "target": 34962
    },
    {
      "buffer": 0,
      "byteLength": 216,
      "byteOffset": 1224,
      "target": 34962
    },
    {
      "buffer": 0,
      "byteLength": 216,
      "byteOffset": 1440,
      "target": 34962
    },
    {
      "buffer": 0,
      "byteLength": 144,
      "byteOffset": 1656,
      "target": 34962
    },
    {
      "buffer": 0,
      "byteLength": 216,
      "byteOffset": 1800,
      "target": 34962
    },
    {
      "buffer": 0,
      "byteLength": 216,
      "byteOffset": 2016,
      "target": 34962
    },
    {
      "buffer": 0,
      "byteLength": 144,
      "byteOffset": 2232,
      "target": 34962
    },
    {
      "buffer": 0,
      "byteLength": 216,
      "byteOffset": 2376,
      "target": 34962
    },
    {
      "buffer": 0,
      "byteLength": 216,
      "byteOffset": 2592,
      "target": 34962
    },
    {
      "buffer": 0,
      "byteLength": 144,
      "byteOffset": 2808,
      "target": 34962
    }
  ],
  "buffers": [
    {
      "byteLength": 2952,
      "uri": "starfish.bin"
    }
  ]
}